<svg xmlns="http://www.w3.org/2000/svg" width="1622" height="292" viewBox="0 0 1622 292">
<g>
<path d="M 84.07 272.37 C82.47,270.33 81.98,268.22 81.93,263.12 C81.81,252.17 80.39,251.34 79.57,261.74 C79.18,266.82 78.41,271.25 77.86,271.58 C76.67,272.32 33.45,229.67 31.35,225.67 C28.81,220.84 27.93,212.43 26.98,184.00 C26.48,168.88 25.60,146.94 25.03,135.25 C20.43,40.62 20.42,40.00 22.29,40.00 C25.30,40.00 57.93,62.93 65.64,70.47 L 70.78 75.50 L 71.44 88.50 C72.55,110.69 75.07,146.40 75.55,146.88 C76.33,147.66 76.04,128.27 74.93,104.25 C73.49,73.32 73.30,73.69 90.70,72.68 C96.30,72.36 108.00,71.42 116.70,70.61 C125.39,69.79 139.70,68.62 148.50,68.02 C157.30,67.41 169.68,66.50 176.00,65.99 C182.32,65.47 194.48,64.56 203.00,63.95 C211.52,63.34 225.67,62.20 234.44,61.42 C243.20,60.64 254.33,60.00 259.16,60.00 C267.52,60.00 268.04,60.13 269.65,62.59 C271.18,64.92 271.42,71.37 272.11,127.34 C273.63,250.37 273.59,252.45 269.25,254.10 C267.05,254.93 253.90,256.44 217.50,260.03 C211.45,260.62 202.68,261.51 198.00,262.00 C193.32,262.49 184.32,263.38 178.00,263.97 C171.68,264.57 161.55,265.53 155.50,266.10 C149.45,266.67 141.21,267.78 137.18,268.56 C133.15,269.35 124.60,270.44 118.18,270.99 C106.92,271.96 92.85,273.64 88.32,274.56 C86.83,274.86 85.50,274.18 84.07,272.37 ZM 124.21 251.01 C128.22,250.47 146.12,248.45 164.00,246.53 C204.35,242.19 223.52,240.06 241.32,237.91 C249.62,236.91 251.36,236.38 252.59,234.50 C253.84,232.60 253.98,223.17 253.58,168.39 C252.98,86.95 253.01,87.56 250.27,84.83 C246.60,81.15 241.78,81.24 184.00,85.96 C177.68,86.48 166.20,87.40 158.50,88.00 C143.56,89.17 132.31,90.21 114.25,92.09 C101.32,93.44 99.04,94.83 97.11,102.47 C95.01,110.81 95.96,156.84 99.48,217.50 C100.83,240.79 101.79,245.79 105.75,250.25 C107.57,252.29 113.09,252.52 124.21,251.01 ZM 72.28 242.30 C73.41,236.40 70.16,140.49 67.89,112.50 C65.96,88.76 67.24,91.28 50.09,77.77 C34.91,65.82 28.33,61.33 27.38,62.29 C26.56,63.11 26.89,87.71 27.96,104.50 C28.48,112.75 29.62,135.48 30.49,155.00 C32.40,197.65 33.25,206.61 35.86,211.73 C38.16,216.24 53.90,233.17 62.30,240.17 C68.96,245.72 71.53,246.26 72.28,242.30 ZM 352.48 273.56 C350.11,271.75 349.00,267.18 349.00,259.27 C349.00,255.09 348.77,251.90 348.48,252.19 C348.20,252.47 347.58,256.84 347.11,261.89 C346.65,266.93 345.97,271.37 345.60,271.74 C345.23,272.11 334.42,261.91 321.57,249.07 C293.14,220.66 295.77,227.85 294.00,173.50 C293.50,158.10 292.37,130.88 291.50,113.00 C288.95,61.03 288.19,41.55 288.67,40.75 C289.69,39.05 292.36,40.43 305.15,49.28 C322.82,61.49 329.63,66.79 334.62,72.21 L 338.74 76.68 L 339.44 95.59 C339.82,105.99 340.55,118.32 341.06,123.00 C341.57,127.68 341.99,134.29 341.99,137.69 C342.00,141.28 342.48,144.18 343.15,144.59 C344.01,145.12 344.14,142.02 343.66,132.40 C343.30,125.31 342.72,110.50 342.36,99.50 L 341.71 79.50 L 344.31 76.41 C346.87,73.37 347.13,73.30 358.21,72.69 C364.42,72.35 376.25,71.42 384.50,70.62 C392.75,69.82 406.48,68.67 415.00,68.06 C456.02,65.13 479.48,63.33 500.80,61.49 C524.98,59.41 535.65,59.48 536.86,61.75 C538.78,65.36 539.94,104.79 540.21,176.00 C540.37,216.43 540.15,250.46 539.72,251.64 C538.56,254.80 535.00,255.32 475.50,261.03 C470.00,261.56 461.23,262.44 456.00,262.99 C450.77,263.54 441.10,264.43 434.50,264.97 C420.55,266.11 409.56,267.47 402.50,268.94 C399.75,269.51 390.30,270.69 381.50,271.56 C372.70,272.43 362.88,273.48 359.68,273.88 C355.98,274.35 353.36,274.23 352.48,273.56 ZM 391.81 251.04 C395.49,250.52 403.00,249.60 408.50,249.01 C414.00,248.41 430.88,246.57 446.00,244.90 C461.12,243.24 477.57,241.47 482.54,240.98 C487.51,240.49 493.36,239.86 495.54,239.58 C497.72,239.30 503.91,238.55 509.29,237.90 C518.51,236.80 519.17,236.56 520.54,233.92 C521.73,231.62 522.00,225.15 521.98,198.80 C521.97,162.63 520.29,89.50 519.42,86.76 C518.57,84.07 513.68,82.00 508.19,82.00 C501.42,82.00 430.52,87.39 402.00,90.07 C378.48,92.28 370.43,93.34 369.09,94.39 C368.31,95.00 366.76,97.53 365.64,100.00 C363.74,104.21 363.62,106.26 363.79,132.00 C363.97,157.58 364.34,167.53 367.01,218.61 C368.46,246.33 370.71,252.00 380.23,252.00 C382.92,252.00 388.13,251.57 391.81,251.04 ZM 339.41 218.48 C339.21,159.42 335.29,93.61 331.70,89.18 C330.43,87.60 302.75,66.20 298.62,63.60 C296.25,62.11 295.58,62.03 294.80,63.14 C293.85,64.51 294.14,76.29 296.02,114.00 C296.56,124.72 297.46,142.95 298.01,154.50 C300.50,206.01 300.44,205.34 303.28,211.14 C306.13,216.96 324.18,236.32 331.95,241.88 C339.68,247.42 339.51,247.96 339.41,218.48 ZM 619.05 272.33 C617.42,270.27 617.00,268.25 616.98,262.62 C616.96,251.98 615.42,251.35 614.63,261.66 C614.26,266.49 613.57,270.83 613.10,271.30 C612.13,272.27 568.51,229.89 566.51,226.01 C563.90,220.97 562.85,211.05 561.97,183.00 C561.48,167.32 560.61,145.05 560.05,133.50 C555.77,45.66 555.58,40.38 556.67,39.71 C557.75,39.04 580.21,53.96 592.62,63.60 C605.57,73.66 605.69,73.86 606.43,87.71 C607.81,113.07 610.08,145.42 610.53,145.86 C611.31,146.64 611.04,126.88 609.96,103.36 C608.96,81.63 608.98,81.15 611.07,77.60 C613.57,73.37 613.04,73.50 633.00,72.07 C641.53,71.46 653.00,70.54 658.50,70.02 C664.00,69.50 675.25,68.59 683.50,68.00 C724.46,65.04 748.76,63.18 768.63,61.47 C778.05,60.66 789.63,60.00 794.36,60.00 C802.48,60.00 803.05,60.14 804.63,62.56 C806.14,64.86 806.40,71.44 807.10,124.81 C808.77,252.56 808.78,252.37 804.25,254.10 C802.02,254.94 785.86,256.80 752.50,260.03 C746.45,260.62 737.90,261.50 733.50,261.99 C729.10,262.49 719.88,263.38 713.00,263.98 C689.49,266.02 679.50,267.14 672.45,268.54 C668.57,269.31 660.02,270.40 653.45,270.96 C643.13,271.84 635.02,272.82 623.80,274.52 C621.78,274.83 620.57,274.27 619.05,272.33 ZM 659.21 251.06 C668.05,249.93 678.38,248.77 708.50,245.52 C739.88,242.13 760.30,239.84 776.32,237.91 C784.63,236.91 786.36,236.38 787.59,234.50 C788.84,232.60 789.05,222.98 789.02,170.17 C788.99,133.60 788.59,107.04 788.03,105.58 C787.51,104.21 787.18,99.48 787.29,95.08 C787.66,81.04 786.71,80.78 746.00,83.95 C699.96,87.53 693.93,88.00 682.00,88.98 C675.67,89.50 666.00,90.36 660.50,90.90 C635.89,93.31 636.60,93.10 633.43,99.00 C630.73,104.04 630.45,126.54 632.48,174.00 C634.94,231.48 635.47,238.87 637.52,244.00 C640.93,252.57 642.78,253.17 659.21,251.06 ZM 607.43 242.44 C608.62,237.67 605.28,141.09 602.89,111.50 C601.08,89.02 602.14,91.04 585.18,77.83 C567.72,64.23 564.59,62.00 562.95,62.00 C561.59,62.00 562.03,88.65 563.96,123.50 C564.50,133.40 565.64,155.37 566.48,172.32 C568.09,204.91 568.27,206.48 571.05,212.00 C573.25,216.39 590.67,234.91 598.00,240.68 C604.33,245.65 606.52,246.06 607.43,242.44 ZM 988.50 274.35 C977.93,273.51 961.86,271.16 911.00,263.02 C907.97,262.54 902.35,261.66 898.50,261.07 C894.65,260.48 884.30,258.87 875.50,257.49 C866.70,256.11 853.42,254.06 846.00,252.94 C830.49,250.59 828.00,250.06 828.00,249.07 C828.00,246.59 857.78,226.68 871.74,219.82 L 881.98 214.79 L 890.74 215.94 C904.11,217.70 918.34,219.84 944.50,224.02 C947.80,224.55 957.70,226.11 966.50,227.50 C975.30,228.89 984.97,230.46 988.00,231.00 C998.60,232.90 1019.59,236.05 1028.50,237.09 C1045.86,239.11 1060.52,241.63 1062.93,242.99 C1064.10,243.66 1057.37,247.37 1036.53,257.57 C1007.49,271.78 999.48,275.12 995.09,274.83 C993.67,274.74 990.70,274.52 988.50,274.35 ZM 988.81 267.85 C998.17,265.55 1027.15,252.10 1034.50,246.65 C1035.60,245.83 1036.17,244.84 1035.78,244.44 C1034.46,243.13 996.72,236.17 968.00,231.96 C963.88,231.35 957.80,230.44 954.50,229.92 C941.04,227.82 913.83,224.25 902.12,223.05 C891.16,221.93 892.94,221.28 870.87,234.57 C848.35,248.14 848.18,248.33 857.17,250.08 C873.54,253.28 929.96,262.32 953.00,265.45 C982.69,269.48 982.28,269.45 988.81,267.85 ZM 1157.05 272.33 C1155.53,270.41 1155.00,268.27 1155.01,264.12 C1155.02,261.03 1154.57,250.18 1154.02,240.00 C1153.46,229.82 1152.54,208.00 1151.97,191.50 C1151.39,175.00 1150.51,152.50 1150.00,141.50 C1149.49,130.50 1148.78,111.96 1148.41,100.30 L 1147.75 79.10 L 1150.63 76.21 C1153.36,73.49 1154.13,73.29 1164.51,72.68 C1170.55,72.32 1180.00,71.58 1185.50,71.04 C1191.00,70.49 1203.38,69.58 1213.00,69.01 C1222.62,68.44 1235.90,67.55 1242.50,67.03 C1249.10,66.51 1260.57,65.63 1268.00,65.07 C1275.43,64.52 1292.97,63.15 1307.00,62.04 C1321.03,60.93 1334.40,60.02 1336.73,60.01 C1344.29,59.99 1344.07,58.69 1345.04,110.22 C1346.26,175.13 1346.59,246.99 1345.69,250.57 C1344.98,253.41 1344.43,253.74 1338.71,254.82 C1330.51,256.37 1306.73,259.21 1278.50,262.01 C1272.45,262.61 1264.12,263.50 1260.00,263.98 C1255.88,264.47 1246.43,265.37 1239.00,265.99 C1225.73,267.09 1208.92,268.82 1204.00,269.60 C1202.62,269.82 1196.55,270.44 1190.50,270.99 C1180.99,271.85 1172.57,272.89 1161.80,274.52 C1159.78,274.83 1158.57,274.27 1157.05,272.33 ZM 1197.42 251.07 C1200.76,250.56 1208.00,249.66 1213.50,249.07 C1257.10,244.44 1294.92,240.25 1314.32,237.91 C1322.84,236.88 1324.34,236.41 1325.68,234.36 C1327.04,232.29 1327.22,224.99 1327.11,175.75 C1327.05,144.81 1326.70,112.32 1326.34,103.55 C1325.74,88.87 1325.51,87.42 1323.47,85.38 C1319.38,81.29 1315.33,81.32 1257.00,86.01 C1250.12,86.56 1238.65,87.48 1231.50,88.05 C1194.65,90.98 1176.83,92.98 1175.09,94.37 C1172.40,96.52 1169.94,103.95 1169.36,111.71 C1168.81,119.09 1169.71,149.00 1172.02,200.50 C1174.16,247.88 1175.26,252.00 1185.82,252.00 C1188.86,252.00 1194.07,251.58 1197.42,251.07 ZM 1532.50 272.90 C1528.10,272.43 1519.78,271.56 1514.00,270.96 C1508.22,270.35 1496.75,268.97 1488.50,267.89 C1480.25,266.81 1470.35,265.51 1466.50,265.01 C1462.65,264.50 1452.97,263.13 1445.00,261.95 C1416.36,257.72 1410.25,256.91 1393.00,255.03 C1363.13,251.77 1364.03,251.93 1362.77,249.61 C1361.46,247.21 1361.52,235.69 1362.98,208.00 C1363.52,197.82 1364.42,180.27 1364.97,169.00 C1370.35,59.63 1370.03,64.12 1372.83,60.80 C1375.06,58.14 1375.77,57.88 1379.41,58.40 C1391.73,60.15 1411.87,61.88 1414.25,61.40 C1415.76,61.09 1418.46,61.32 1420.25,61.91 C1422.04,62.49 1426.20,63.16 1429.50,63.39 C1432.80,63.62 1439.78,64.30 1445.00,64.90 C1450.22,65.49 1456.75,66.22 1459.50,66.51 C1462.25,66.80 1468.10,67.47 1472.50,67.99 C1500.61,71.33 1529.56,74.56 1544.49,76.02 C1565.59,78.08 1564.50,76.58 1563.74,102.81 C1563.42,113.64 1563.54,123.40 1564.01,124.50 C1564.70,126.13 1564.88,125.86 1564.95,123.00 C1565.27,110.55 1567.10,84.50 1567.92,80.86 C1568.67,77.47 1569.95,75.61 1573.66,72.50 C1576.29,70.30 1584.74,62.99 1592.44,56.25 C1600.14,49.51 1607.02,44.00 1607.72,44.00 C1609.30,44.00 1609.30,42.69 1607.54,71.04 C1604.50,119.82 1603.97,128.46 1602.96,145.25 C1602.40,154.74 1601.51,169.02 1601.00,177.00 C1600.49,184.98 1599.81,196.90 1599.49,203.50 C1598.64,220.85 1597.69,224.47 1592.17,231.25 C1571.89,256.19 1559.28,270.87 1558.10,270.93 C1556.92,270.99 1556.80,268.50 1557.34,255.75 C1558.17,236.45 1559.78,208.30 1561.03,191.50 C1562.09,177.33 1562.33,159.34 1561.45,160.22 C1561.15,160.52 1560.45,167.23 1559.91,175.13 C1559.37,183.04 1558.53,195.35 1558.03,202.50 C1557.54,209.65 1556.65,223.38 1556.05,233.00 C1554.72,254.42 1553.06,269.92 1551.84,272.25 C1550.82,274.22 1546.49,274.36 1532.50,272.90 ZM 1533.58 249.25 C1535.46,246.41 1535.42,246.81 1537.99,205.00 C1539.31,183.51 1540.59,162.86 1542.02,140.19 C1542.65,130.12 1542.91,121.21 1542.60,120.39 C1542.28,119.57 1542.47,115.73 1543.02,111.85 C1543.78,106.52 1543.71,104.19 1542.76,102.25 C1539.96,96.55 1536.10,95.29 1514.50,93.04 C1509.00,92.47 1500.45,91.54 1495.50,90.97 C1482.81,89.51 1471.04,88.21 1460.00,87.05 C1454.78,86.50 1442.85,85.17 1433.50,84.10 C1410.45,81.46 1398.64,80.62 1395.49,81.41 C1389.76,82.85 1387.84,92.56 1386.01,129.50 C1385.44,141.05 1384.54,158.60 1384.00,168.50 C1381.26,219.17 1381.48,227.10 1385.80,232.71 C1387.58,235.04 1389.95,235.53 1411.00,237.96 C1428.27,239.95 1437.41,241.04 1445.00,242.02 C1449.12,242.56 1458.57,243.69 1466.00,244.55 C1473.43,245.40 1482.65,246.50 1486.50,246.99 C1490.35,247.48 1498.22,248.41 1504.00,249.05 C1509.78,249.69 1516.53,250.56 1519.00,250.99 C1528.40,252.63 1531.61,252.24 1533.58,249.25 ZM 1577.63 231.75 C1585.28,223.16 1591.25,215.47 1592.67,212.38 C1595.21,206.87 1595.68,202.96 1598.49,164.00 C1599.34,152.18 1600.48,136.88 1601.01,130.00 C1602.83,106.54 1604.07,67.67 1603.03,66.63 C1601.87,65.47 1601.76,65.56 1585.19,80.93 C1578.42,87.22 1572.46,93.14 1571.96,94.08 C1570.87,96.12 1569.50,111.91 1568.04,139.50 C1566.69,164.85 1564.28,206.84 1563.02,227.22 C1562.07,242.46 1562.27,246.00 1564.08,246.00 C1564.56,246.00 1570.65,239.59 1577.63,231.75 ZM 1563.76 136.50 C1563.75,128.40 1563.60,127.35 1562.95,131.00 C1562.51,133.48 1562.18,140.90 1562.23,147.50 C1562.30,158.06 1562.39,158.72 1563.04,153.00 C1563.44,149.43 1563.76,142.00 1563.76,136.50 ZM 1129.86 252.28 C1119.43,241.98 1109.01,231.11 1106.70,228.11 L 1102.50 222.67 L 1101.83 206.58 C1100.38,171.96 1097.92,124.98 1096.01,95.50 C1094.38,70.25 1093.62,39.35 1094.62,38.74 C1095.13,38.42 1103.63,44.01 1113.52,51.14 C1123.41,58.28 1133.85,65.78 1136.73,67.81 C1140.39,70.40 1142.28,72.54 1143.05,75.00 C1143.65,76.93 1144.76,94.70 1145.53,114.50 C1146.29,134.30 1147.62,162.20 1148.50,176.50 C1150.50,209.34 1151.91,242.94 1151.96,258.75 C1151.99,269.31 1151.78,271.00 1150.40,271.00 C1149.53,271.00 1140.28,262.58 1129.86,252.28 ZM 1145.59 243.49 C1145.94,242.12 1145.73,230.98 1145.13,218.74 C1144.54,206.51 1143.57,183.90 1142.99,168.50 C1140.87,111.84 1139.65,94.87 1137.39,90.48 C1134.44,84.75 1104.62,62.16 1101.56,63.34 C1099.66,64.07 1099.48,76.00 1100.96,103.50 C1101.49,113.40 1102.42,132.07 1103.03,145.00 C1104.50,176.67 1106.86,208.51 1107.93,211.25 C1109.14,214.38 1141.38,246.00 1143.35,246.00 C1144.24,246.00 1145.24,244.87 1145.59,243.49 ZM 824.00 237.15 C824.00,232.70 825.11,220.34 826.46,209.68 C828.80,191.28 830.94,172.08 833.01,151.00 C833.52,145.77 834.41,137.00 834.99,131.50 C835.57,126.00 837.16,110.47 838.51,97.00 C840.21,80.06 841.49,71.49 842.66,69.23 C845.66,63.38 887.62,27.18 894.25,24.71 C896.33,23.94 896.50,26.67 895.04,37.00 C893.96,44.63 889.89,93.24 887.01,133.00 C884.42,168.69 882.20,191.74 880.34,202.27 C878.95,210.11 878.44,211.32 875.46,213.77 C871.08,217.37 828.23,244.13 825.85,244.75 C824.16,245.19 824.00,244.52 824.00,237.15 ZM 843.00 217.89 C858.72,209.33 871.98,198.29 874.43,191.72 C875.30,189.40 876.45,182.55 876.98,176.50 C878.34,161.20 879.50,148.72 882.50,117.50 C889.33,46.44 889.30,47.00 887.08,47.00 C886.39,47.00 866.83,62.63 852.75,74.44 C850.16,76.61 847.32,79.91 846.44,81.77 C844.77,85.30 842.85,97.27 838.39,132.00 C833.74,168.27 830.17,212.06 831.37,218.25 C832.30,223.07 833.55,223.04 843.00,217.89 ZM 1046.00 237.43 C1039.68,236.70 1027.53,234.93 1019.00,233.50 C996.14,229.67 993.13,229.17 986.00,228.03 C982.42,227.45 973.42,225.89 966.00,224.56 C958.58,223.23 948.00,221.39 942.50,220.49 C937.00,219.58 930.25,218.44 927.50,217.96 C924.75,217.47 914.18,215.94 904.00,214.56 C889.71,212.61 885.22,211.65 884.25,210.33 C882.40,207.80 882.77,198.30 885.93,167.00 C889.71,129.42 891.65,109.47 895.06,73.00 C895.61,67.22 896.49,58.00 897.03,52.50 C897.57,47.00 898.30,39.35 898.64,35.50 C899.79,22.87 902.47,20.63 913.28,23.32 C916.70,24.17 924.45,25.59 930.50,26.47 C936.55,27.35 946.22,28.94 952.00,30.00 C957.78,31.07 966.33,32.61 971.00,33.42 C975.67,34.24 992.44,37.40 1008.25,40.44 C1024.06,43.49 1042.74,46.88 1049.75,47.99 C1064.96,50.39 1074.89,52.66 1076.69,54.15 C1079.45,56.45 1078.21,91.84 1072.96,160.00 C1071.68,176.60 1070.29,196.11 1069.06,214.71 C1068.50,223.07 1067.54,231.96 1066.91,234.46 C1065.77,238.96 1065.73,239.00 1061.63,238.87 C1059.36,238.81 1052.32,238.15 1046.00,237.43 ZM 1048.80 214.99 C1051.01,212.62 1051.27,209.76 1058.06,116.00 C1059.95,89.79 1060.08,74.78 1058.44,72.27 C1055.57,67.89 1054.88,67.71 1006.50,58.94 C1003.20,58.34 998.47,57.47 996.00,57.00 C993.53,56.53 988.80,55.68 985.50,55.10 C974.33,53.14 941.53,46.92 937.31,45.96 C935.00,45.43 930.65,45.00 927.63,45.00 C922.89,45.00 921.86,45.36 920.07,47.64 C917.05,51.48 915.14,58.87 913.95,71.42 C911.90,92.97 910.92,103.62 910.01,114.00 C908.47,131.75 907.07,147.04 906.04,157.50 C904.38,174.29 904.70,187.97 906.84,191.96 C908.90,195.80 910.11,196.29 921.50,197.91 C930.03,199.12 977.31,206.31 994.50,209.01 C997.80,209.53 1008.38,211.13 1018.00,212.56 C1027.62,213.99 1037.30,215.53 1039.50,215.97 C1045.76,217.25 1046.80,217.14 1048.80,214.99 ZM 1533.00 72.42 C1521.18,71.12 1506.78,69.58 1501.00,68.98 C1495.22,68.39 1486.45,67.47 1481.50,66.95 C1476.55,66.42 1468.00,65.55 1462.50,65.01 C1457.00,64.47 1448.45,63.58 1443.50,63.04 C1434.33,62.03 1430.29,61.61 1396.00,58.01 C1385.28,56.88 1375.94,55.76 1375.25,55.51 C1372.93,54.68 1373.98,53.05 1378.25,50.88 C1380.59,49.70 1389.70,43.99 1398.50,38.21 C1407.30,32.42 1416.75,26.55 1419.50,25.16 C1427.29,21.22 1430.43,21.21 1467.00,24.97 C1472.22,25.50 1492.25,27.56 1511.50,29.53 C1530.75,31.50 1550.55,33.54 1555.50,34.07 C1560.45,34.59 1569.22,35.43 1575.00,35.94 C1590.91,37.34 1603.41,39.02 1604.27,39.88 C1604.70,40.30 1601.32,43.61 1596.77,47.25 C1592.22,50.88 1583.32,58.60 1577.00,64.40 L 1565.50 74.95 L 1560.00 74.86 C1556.97,74.82 1544.82,73.71 1533.00,72.42 ZM 1565.90 56.02 C1574.13,48.88 1581.13,42.59 1581.47,42.05 C1582.25,40.79 1580.14,40.38 1566.00,39.01 C1559.68,38.40 1550.90,37.49 1546.50,36.99 C1542.10,36.48 1534.00,35.61 1528.50,35.05 C1523.00,34.49 1514.22,33.58 1509.00,33.03 C1503.78,32.48 1492.53,31.34 1484.00,30.49 C1475.47,29.65 1465.22,28.52 1461.21,27.98 C1449.02,26.34 1439.45,26.71 1435.21,29.00 C1426.49,33.68 1401.50,50.76 1401.50,52.03 C1401.50,53.72 1405.70,54.76 1417.50,55.96 C1435.22,57.78 1446.86,58.99 1471.00,61.54 C1504.81,65.10 1511.72,65.80 1525.50,67.04 C1532.10,67.63 1537.95,68.28 1538.50,68.48 C1539.05,68.68 1542.08,68.88 1545.22,68.92 L 1550.95 69.00 L 1565.90 56.02 ZM 1146.99 70.13 C1145.60,69.78 1143.35,68.70 1141.99,67.71 C1140.62,66.73 1137.70,64.61 1135.50,63.01 C1133.30,61.41 1124.19,54.83 1115.25,48.40 C1106.31,41.96 1099.00,36.33 1099.00,35.87 C1099.00,35.41 1100.01,34.84 1101.25,34.59 C1106.67,33.50 1159.00,28.74 1195.50,26.01 C1203.75,25.39 1215.68,24.48 1222.00,23.98 C1228.32,23.47 1244.12,22.76 1257.10,22.40 L 1280.71 21.73 L 1293.15 28.84 C1300.00,32.75 1313.20,39.90 1322.49,44.73 C1331.78,49.55 1339.54,54.00 1339.73,54.62 C1340.13,55.90 1335.80,56.58 1317.95,58.02 C1311.10,58.58 1301.00,59.46 1295.50,59.99 C1282.77,61.21 1252.53,63.70 1234.75,65.00 C1216.38,66.34 1198.54,67.68 1175.00,69.48 C1154.34,71.06 1151.00,71.14 1146.99,70.13 ZM 1208.00 62.94 C1221.76,62.00 1231.71,61.16 1254.50,59.02 C1260.00,58.50 1269.79,57.61 1276.25,57.04 C1303.45,54.63 1311.02,53.70 1312.56,52.58 C1313.92,51.59 1310.73,49.51 1292.38,39.45 C1280.39,32.88 1269.69,27.15 1268.61,26.71 C1266.63,25.93 1261.18,26.22 1208.00,29.95 C1192.32,31.05 1172.53,32.42 1164.00,33.01 C1143.93,34.37 1126.07,36.04 1124.35,36.69 C1123.61,36.98 1123.00,37.57 1123.00,38.00 C1123.00,39.11 1143.21,54.04 1150.86,58.59 C1162.41,65.45 1166.65,65.77 1208.00,62.94 ZM 69.34 67.75 C67.63,66.51 62.58,62.67 58.13,59.21 C53.67,55.76 44.15,48.93 36.97,44.05 C29.78,39.17 24.37,34.89 24.92,34.55 C26.68,33.46 41.32,32.04 77.00,29.49 C133.88,25.43 139.97,24.99 153.00,23.99 C181.49,21.79 201.20,20.77 204.58,21.32 C206.56,21.64 211.57,24.06 215.73,26.70 C219.88,29.34 232.74,36.45 244.30,42.50 C255.86,48.55 265.36,53.94 265.41,54.49 C265.52,55.73 259.52,56.59 241.59,57.93 C233.84,58.51 213.10,60.13 195.50,61.53 C177.90,62.92 157.99,64.50 151.25,65.03 C144.51,65.57 133.26,66.46 126.25,67.01 C79.60,70.72 73.54,70.80 69.34,67.75 ZM 107.45 64.03 C113.53,63.50 128.40,62.36 140.50,61.51 C152.60,60.65 167.68,59.54 174.00,59.03 C180.32,58.52 192.25,57.62 200.50,57.03 C219.17,55.69 236.97,53.95 238.69,53.29 C241.23,52.32 239.91,51.13 230.25,45.70 C224.89,42.69 215.21,37.25 208.75,33.61 L 197.00 27.00 L 177.80 27.00 C167.24,27.00 153.63,27.44 147.55,27.97 C141.47,28.50 127.95,29.63 117.50,30.47 C107.05,31.32 93.55,32.45 87.50,32.99 C81.45,33.53 70.88,34.46 64.02,35.07 C57.15,35.67 50.95,36.49 50.23,36.89 C48.40,37.92 49.78,39.03 70.10,52.97 C89.77,66.46 87.49,65.78 107.45,64.03 ZM 338.50 68.78 C337.40,68.15 331.10,63.50 324.50,58.46 C317.90,53.42 307.89,46.24 302.25,42.50 C296.61,38.76 292.00,35.36 292.00,34.95 C292.00,33.88 305.28,32.36 330.50,30.54 C342.60,29.66 358.12,28.53 365.00,28.02 C371.88,27.51 384.25,26.61 392.50,26.02 C400.75,25.43 413.12,24.52 420.00,23.98 C447.76,21.84 468.43,20.81 472.07,21.39 C474.18,21.73 480.08,24.63 485.21,27.84 C490.32,31.04 503.16,38.10 513.75,43.53 C524.34,48.95 533.00,53.92 533.00,54.56 C533.00,55.87 528.20,56.54 508.50,58.00 C496.39,58.89 448.30,62.66 418.50,65.05 C403.44,66.25 385.74,67.64 368.00,68.99 C351.31,70.26 340.93,70.19 338.50,68.78 ZM 375.08 64.04 C380.81,63.51 395.40,62.38 407.50,61.52 C419.60,60.67 435.35,59.52 442.50,58.97 C449.65,58.42 461.80,57.51 469.50,56.95 C493.35,55.22 506.01,53.80 506.63,52.78 C507.62,51.19 505.45,49.76 484.21,37.99 L 463.91 26.74 L 438.71 27.32 C424.84,27.64 408.33,28.35 402.00,28.90 C395.67,29.45 382.62,30.61 373.00,31.46 C363.38,32.32 347.19,33.70 337.02,34.53 C319.33,35.99 315.43,36.86 317.55,38.92 C318.07,39.43 326.79,45.50 336.93,52.42 C357.75,66.63 355.24,65.87 375.08,64.04 ZM 602.00 66.02 C588.51,55.63 573.92,45.01 567.25,40.71 C563.26,38.14 560.00,35.63 560.00,35.13 C560.00,33.37 565.75,32.85 661.00,25.99 C668.97,25.42 681.12,24.52 688.00,24.00 C718.13,21.72 736.22,20.77 739.56,21.32 C741.54,21.64 746.83,24.24 751.33,27.11 C755.82,29.98 768.61,37.01 779.74,42.73 C798.15,52.21 801.89,54.46 800.85,55.47 C800.45,55.86 783.94,57.42 763.50,58.99 C755.80,59.58 744.10,60.50 737.50,61.02 C730.90,61.54 716.72,62.65 706.00,63.48 C695.28,64.31 680.42,65.46 673.00,66.03 C665.58,66.61 654.78,67.50 649.00,68.02 C643.22,68.53 631.53,69.25 623.00,69.61 L 607.50 70.26 L 602.00 66.02 ZM 642.50 64.04 C648.55,63.51 663.17,62.39 675.00,61.55 C686.83,60.70 702.12,59.57 709.00,59.04 C715.88,58.50 728.03,57.58 736.00,57.00 C769.57,54.54 776.91,53.42 774.49,51.15 C773.95,50.64 764.16,45.00 752.74,38.61 L 731.99 27.00 L 712.80 27.00 C702.24,27.00 688.63,27.44 682.55,27.97 C676.47,28.51 665.42,29.44 658.00,30.04 C650.58,30.64 639.55,31.55 633.50,32.06 C627.45,32.57 614.50,33.66 604.72,34.47 C594.93,35.28 586.20,36.35 585.30,36.85 C583.46,37.88 584.07,38.36 608.45,55.20 C624.34,66.17 622.73,65.76 642.50,64.04 ZM 130.72 219.39 C129.85,218.51 129.76,209.79 130.61,207.58 C131.03,206.47 132.52,206.00 135.57,206.00 C138.88,206.00 140.18,205.53 140.98,204.04 C142.93,200.39 142.00,141.97 139.90,136.30 C139.21,134.44 138.20,134.06 133.29,133.80 L 127.50 133.50 L 127.20 127.89 L 126.91 122.27 L 130.70 121.69 C132.79,121.37 140.12,120.83 147.00,120.50 C153.88,120.17 165.54,119.19 172.92,118.32 C205.27,114.52 218.44,119.95 218.20,137.01 C218.06,146.80 213.83,154.34 205.98,158.83 C203.19,160.42 201.42,162.05 201.82,162.66 C202.19,163.24 204.96,164.34 207.96,165.10 C219.57,168.05 223.53,173.26 223.45,185.50 C223.37,199.04 221.72,201.67 209.12,208.26 C203.04,211.45 191.39,214.02 186.39,213.28 C184.68,213.02 179.74,213.81 175.41,215.03 C169.80,216.60 162.89,217.48 151.51,218.07 C142.71,218.53 134.59,219.18 133.47,219.51 C132.36,219.84 131.12,219.79 130.72,219.39 ZM 188.87 199.21 C193.94,196.87 195.99,192.73 196.00,184.81 C196.00,179.21 195.61,177.66 193.63,175.36 C191.60,173.00 190.37,172.56 184.88,172.24 C181.37,172.03 176.74,172.24 174.59,172.71 L 170.68 173.55 L 170.47 187.03 C170.35,194.44 170.41,200.78 170.61,201.12 C171.25,202.26 185.47,200.78 188.87,199.21 ZM 178.31 157.54 C181.50,156.78 185.16,155.47 186.42,154.64 C188.91,153.01 191.00,146.58 191.00,140.57 C191.00,137.52 190.42,136.64 186.83,134.26 C183.25,131.90 181.63,131.50 175.58,131.50 L 168.50 131.50 L 168.87 144.50 C169.07,151.65 169.43,157.84 169.68,158.25 C170.27,159.26 171.52,159.16 178.31,157.54 ZM 61.40 209.84 C60.95,209.10 60.26,205.82 59.87,202.54 C59.18,196.68 59.04,196.46 50.83,188.54 L 42.50 180.50 L 42.22 184.50 C42.06,186.70 41.69,189.18 41.40,190.00 C40.93,191.32 40.76,191.32 40.00,189.97 C39.24,188.61 38.52,176.73 36.34,129.50 C35.42,109.79 38.24,99.76 42.42,107.85 C43.23,109.42 44.42,112.80 45.07,115.37 C46.67,121.71 47.62,121.90 48.40,116.02 C48.76,113.31 49.51,110.80 50.07,110.46 C52.83,108.75 57.17,116.65 58.89,126.50 C59.47,129.80 60.42,144.88 61.02,160.00 C61.61,175.12 62.51,192.44 63.03,198.47 C63.91,208.83 63.32,212.94 61.40,209.84 ZM 58.00 159.14 C58.00,149.90 56.38,141.93 54.02,139.57 C52.09,137.65 52.06,137.65 51.11,140.06 C50.58,141.40 50.27,146.63 50.43,151.68 C50.70,160.38 50.86,160.98 53.61,163.39 C55.20,164.79 56.84,165.95 57.25,165.97 C57.66,165.99 58.00,162.91 58.00,159.14 ZM 46.70 150.75 C45.22,134.56 40.00,129.11 40.00,143.75 C40.00,150.68 40.25,151.65 42.69,154.20 C44.16,155.74 45.80,157.00 46.32,157.00 C46.88,157.00 47.04,154.43 46.70,150.75 ZM 421.50 214.18 C406.24,209.46 401.76,206.33 397.04,197.07 C391.76,186.73 389.52,168.14 392.09,155.92 C393.77,147.89 400.42,135.79 406.50,129.71 C415.67,120.55 424.32,117.05 442.78,115.03 C453.49,113.86 460.09,114.93 468.95,119.30 C476.63,123.09 485.55,132.30 489.75,140.81 C493.15,147.68 493.50,149.14 493.49,156.44 C493.48,166.47 490.67,183.70 488.09,189.54 C485.85,194.59 478.33,203.00 472.50,206.97 C470.30,208.46 464.67,211.15 460.00,212.94 C452.81,215.70 449.89,216.26 441.00,216.58 C431.71,216.91 429.47,216.64 421.50,214.18 ZM 450.98 201.25 C455.35,199.05 458.25,194.74 461.11,186.20 C462.97,180.65 463.35,177.36 463.32,167.00 C463.23,140.40 456.92,128.41 443.09,128.60 C433.63,128.74 427.38,133.63 424.57,143.07 C422.43,150.28 421.48,171.12 422.90,179.56 C424.43,188.67 429.24,198.57 433.35,201.07 C437.42,203.56 446.21,203.64 450.98,201.25 ZM 318.72 204.86 C317.19,203.72 315.33,201.60 314.59,200.15 C308.09,187.48 303.40,153.98 304.16,125.65 C304.49,113.44 304.86,110.86 306.82,106.84 C310.42,99.46 312.47,99.75 317.40,108.32 C324.63,120.90 328.78,141.38 329.68,169.00 C330.31,188.19 329.36,198.47 326.42,204.16 C324.69,207.51 322.53,207.71 318.72,204.86 ZM 323.92 175.60 C327.86,170.85 327.04,158.75 321.80,144.26 C318.64,135.53 315.63,132.00 311.34,132.00 C308.15,132.00 307.00,135.27 307.01,144.32 C307.03,155.43 310.31,165.77 316.11,172.99 C319.47,177.16 321.94,177.99 323.92,175.60 ZM 689.00 214.17 C677.68,210.83 674.45,209.23 670.10,204.82 C666.12,200.78 664.46,197.71 661.38,188.63 C659.39,182.79 659.00,179.68 659.01,169.57 C659.02,156.59 659.97,152.06 664.68,142.36 C667.95,135.62 677.40,125.61 684.18,121.69 C692.90,116.67 712.97,113.29 723.72,115.04 C741.18,117.87 757.09,133.23 760.98,151.00 C762.04,155.83 761.88,158.35 759.66,171.66 C758.11,181.00 756.29,188.48 754.92,191.16 C751.86,197.18 741.48,207.05 735.48,209.66 C721.20,215.86 719.67,216.26 709.01,216.62 C699.78,216.93 697.34,216.63 689.00,214.17 ZM 717.90 201.42 C725.88,198.23 731.50,183.97 731.26,167.50 C731.00,149.26 727.18,136.53 720.45,131.39 C717.18,128.90 715.81,128.51 710.58,128.58 C703.12,128.68 698.86,130.75 695.43,135.92 C691.31,142.16 690.02,148.99 690.01,164.85 C690.00,184.21 693.01,194.71 700.22,200.39 C704.15,203.49 711.65,203.92 717.90,201.42 ZM 585.63 203.89 C582.25,200.51 580.73,197.88 579.07,192.50 C574.27,177.02 570.26,141.30 571.32,123.66 C572.05,111.72 573.23,107.01 576.45,103.26 C578.80,100.53 578.82,100.52 580.97,102.47 C582.16,103.55 584.65,107.59 586.50,111.46 C593.60,126.30 597.19,147.24 597.37,175.00 C597.51,194.98 596.20,202.70 592.04,206.47 C590.07,208.25 589.93,208.19 585.63,203.89 ZM 592.67 173.25 C596.11,165.03 590.65,140.80 584.00,134.75 C577.52,128.87 574.48,131.82 574.56,143.90 C574.64,155.23 577.61,165.06 583.03,171.91 C587.98,178.18 590.46,178.53 592.67,173.25 ZM 970.00 261.30 C959.36,260.16 938.44,256.72 936.15,255.74 C933.81,254.73 934.48,254.53 942.00,254.01 C950.27,253.43 955.00,251.95 955.00,249.94 C955.00,249.00 925.13,249.72 924.03,250.69 C923.77,250.92 924.16,251.48 924.89,251.93 C927.22,253.37 924.30,254.15 920.27,253.16 C916.49,252.23 907.56,250.90 890.22,248.68 C885.11,248.03 880.96,247.04 880.99,246.50 C881.02,245.95 882.50,245.55 884.28,245.61 C904.14,246.28 920.46,246.12 920.75,245.25 C921.44,243.19 911.41,234.19 907.14,233.04 C904.86,232.42 903.00,231.49 903.00,230.96 C903.00,229.73 907.65,229.74 915.38,230.99 C918.75,231.53 926.68,232.66 933.02,233.50 C951.82,236.00 957.88,238.59 946.35,239.20 L 940.70 239.50 L 943.44 242.75 C946.13,245.94 946.34,246.00 954.52,246.00 C959.11,246.00 964.14,245.49 965.68,244.86 L 968.50 243.72 L 964.76 242.11 C955.67,238.20 964.60,237.92 981.55,241.58 C988.12,243.01 996.76,244.65 1000.75,245.24 C1009.99,246.60 1010.48,248.52 1001.37,247.67 C994.87,247.06 994.53,247.16 984.37,252.21 C978.67,255.04 974.00,257.67 974.00,258.05 C974.00,258.44 975.38,259.03 977.07,259.36 C978.77,259.70 979.85,260.43 979.51,260.99 C978.89,261.98 976.93,262.05 970.00,261.30 ZM 1209.14 217.75 C1208.69,216.51 1208.25,208.25 1208.15,199.38 L 1207.97 183.26 L 1212.73 182.73 C1218.57,182.07 1220.56,183.04 1221.34,186.93 C1222.23,191.42 1228.73,197.95 1235.50,201.16 C1246.87,206.54 1262.34,204.41 1266.98,196.81 C1270.56,190.93 1269.23,186.00 1263.13,182.51 C1260.88,181.23 1239.73,177.43 1229.60,176.50 C1224.17,176.00 1218.75,173.50 1212.92,168.81 C1208.14,164.98 1206.00,158.44 1206.00,147.72 C1206.00,138.61 1208.33,132.70 1213.83,127.87 C1222.76,120.03 1233.15,115.99 1246.00,115.37 C1254.64,114.96 1256.27,115.19 1264.00,117.90 C1273.23,121.14 1273.04,121.18 1276.50,115.64 C1277.12,114.65 1279.18,113.93 1281.91,113.77 C1286.13,113.51 1286.36,113.65 1287.19,116.74 C1287.66,118.53 1287.93,126.63 1287.78,134.74 L 1287.50 149.50 L 1282.73 150.05 C1280.11,150.35 1277.62,150.35 1277.20,150.05 C1276.79,149.75 1275.58,147.55 1274.53,145.17 C1272.28,140.07 1265.82,134.08 1259.22,130.97 C1255.17,129.07 1253.38,128.83 1246.60,129.29 C1240.98,129.68 1237.95,130.39 1236.10,131.77 C1232.62,134.37 1230.58,139.96 1231.44,144.54 C1232.03,147.65 1232.79,148.47 1236.81,150.27 C1239.86,151.64 1244.82,152.63 1251.00,153.10 C1268.14,154.40 1278.01,157.56 1285.52,164.15 C1290.72,168.72 1291.72,171.37 1292.52,182.60 C1293.15,191.42 1292.99,193.23 1291.28,197.09 C1285.67,209.72 1266.46,217.72 1244.00,216.78 C1235.65,216.43 1232.60,215.88 1229.11,214.08 L 1224.72 211.82 L 1222.61 214.39 C1220.51,216.95 1214.47,220.00 1211.51,220.00 C1210.65,220.00 1209.59,218.99 1209.14,217.75 ZM 1471.50 217.01 C1468.75,216.62 1462.48,215.55 1457.57,214.64 C1452.66,213.73 1445.88,213.04 1442.49,213.12 C1433.57,213.31 1432.00,212.18 1432.00,205.53 C1432.00,199.28 1433.14,198.45 1440.26,199.52 C1446.87,200.51 1447.79,198.88 1448.18,185.50 L 1448.50 174.50 L 1441.08 161.24 C1436.99,153.95 1430.64,143.15 1426.95,137.24 C1420.66,127.16 1420.00,126.44 1416.12,125.56 L 1412.00 124.62 L 1412.00 119.38 L 1412.00 114.14 L 1417.25 114.55 C1420.14,114.77 1425.65,115.15 1429.50,115.39 C1433.35,115.64 1440.55,116.55 1445.50,117.42 C1450.45,118.29 1457.09,119.25 1460.25,119.57 L 1466.00 120.14 L 1466.00 125.57 L 1466.00 131.00 L 1462.58 131.00 C1458.01,131.00 1456.00,131.87 1456.00,133.86 C1456.00,136.27 1465.49,155.23 1467.69,157.22 C1469.47,158.83 1469.78,158.63 1474.53,152.82 C1485.62,139.25 1486.81,133.93 1479.00,132.85 C1476.71,132.53 1476.47,132.02 1476.20,126.87 C1475.85,120.06 1476.60,119.57 1485.36,120.94 C1488.74,121.47 1496.00,122.41 1501.50,123.03 C1517.20,124.82 1516.00,124.20 1516.00,130.50 L 1516.00 135.97 L 1511.67 137.06 C1505.27,138.67 1498.20,144.52 1494.59,151.20 C1492.89,154.33 1489.03,159.86 1486.00,163.48 C1478.85,172.03 1477.04,175.58 1475.37,184.31 C1472.71,198.27 1474.02,204.00 1479.88,204.00 C1481.10,204.00 1483.43,204.69 1485.06,205.53 C1487.79,206.94 1488.00,207.43 1487.71,211.75 C1487.45,215.74 1487.05,216.53 1484.95,217.12 C1481.92,217.96 1477.99,217.93 1471.50,217.01 ZM 1569.89 208.99 C1569.64,205.38 1570.21,201.17 1571.53,197.00 C1573.43,191.00 1575.73,179.79 1577.57,167.54 C1582.00,138.03 1583.04,124.76 1581.00,123.50 C1580.45,123.16 1580.00,120.36 1580.00,117.29 C1580.00,111.82 1580.12,111.58 1585.20,106.91 C1588.06,104.28 1590.76,102.35 1591.20,102.62 C1592.57,103.47 1592.08,108.48 1589.98,115.06 C1585.91,127.81 1586.67,157.73 1591.50,174.58 C1593.20,180.52 1592.45,184.30 1588.42,190.12 C1586.10,193.47 1582.05,197.00 1580.54,197.00 C1579.23,197.00 1580.18,190.07 1581.96,186.58 C1583.65,183.26 1583.80,181.82 1583.04,175.79 C1581.75,165.52 1581.19,165.55 1579.13,176.00 C1578.07,181.35 1577.95,184.35 1578.32,196.24 C1578.49,201.74 1578.33,202.14 1574.25,206.22 C1571.57,208.90 1569.96,209.92 1569.89,208.99 ZM 1131.45 198.25 C1129.27,195.87 1127.96,193.40 1127.88,191.50 C1127.80,189.85 1127.63,187.39 1127.50,186.04 C1127.36,184.68 1128.10,182.43 1129.13,181.03 C1132.29,176.76 1133.41,167.26 1132.03,156.35 C1130.36,143.08 1128.36,138.01 1126.61,142.58 C1126.27,143.45 1126.00,152.03 1126.00,161.64 C1126.00,182.67 1124.41,191.00 1120.40,191.00 C1114.12,191.00 1107.33,149.54 1109.93,127.15 C1110.69,120.66 1110.77,116.43 1110.15,115.28 C1109.63,114.30 1108.88,110.91 1108.49,107.75 C1107.62,100.79 1108.77,100.32 1114.30,105.38 C1117.53,108.34 1118.00,109.35 1118.00,113.33 C1118.00,116.26 1117.20,119.24 1115.75,121.69 C1113.70,125.17 1113.50,126.76 1113.50,140.00 C1113.50,153.76 1115.07,165.00 1116.98,165.00 C1118.48,165.00 1119.02,160.40 1120.02,139.28 C1120.57,127.61 1121.47,116.89 1122.02,115.46 C1124.62,108.60 1129.68,116.61 1133.09,133.00 C1134.88,141.61 1135.33,147.64 1135.60,166.50 C1135.79,179.15 1136.23,192.31 1136.59,195.75 C1137.37,203.22 1136.43,203.67 1131.45,198.25 ZM 841.43 183.88 C842.39,164.61 845.24,150.00 848.02,150.00 C848.63,150.00 848.96,151.54 848.79,153.64 C848.41,158.37 850.01,158.85 854.06,155.24 L 857.28 152.36 L 855.46 142.70 C852.96,129.43 851.42,127.41 850.28,135.92 C849.92,138.61 849.23,140.00 848.26,140.00 C847.14,140.00 846.91,139.20 847.34,136.75 C847.64,134.96 848.40,127.43 849.02,120.00 C850.62,100.74 851.35,95.71 852.60,95.30 C853.32,95.06 853.90,98.31 854.29,104.76 C854.89,114.51 856.16,120.00 857.81,120.00 C859.98,120.00 870.30,94.95 873.56,81.78 C874.48,78.08 875.89,74.50 876.71,73.83 C878.00,72.76 878.10,73.79 877.51,82.05 C876.58,94.99 874.17,115.87 873.20,119.43 C872.23,122.96 870.00,124.07 870.00,121.02 C870.00,117.40 868.41,119.60 864.56,128.55 C861.21,136.37 860.95,137.62 861.69,142.31 C862.25,145.83 863.03,147.57 864.13,147.79 C866.09,148.16 866.93,146.35 868.45,138.50 C869.22,134.46 870.07,132.50 871.05,132.50 C872.86,132.50 872.64,137.07 869.94,156.30 C868.87,163.89 868.00,172.49 868.00,175.43 C868.00,178.94 867.49,181.18 866.50,182.00 C865.20,183.07 865.00,182.64 865.00,178.79 C865.00,176.34 864.74,174.07 864.42,173.75 C863.79,173.12 859.54,175.45 851.50,180.82 C846.81,183.95 846.40,184.58 844.93,190.77 C844.07,194.41 842.76,197.58 842.03,197.82 C840.95,198.18 840.84,195.63 841.43,183.88 ZM 1028.00 184.98 C1026.07,184.59 1016.40,183.04 1006.50,181.54 C996.60,180.04 987.51,178.42 986.29,177.94 C984.36,177.19 984.11,176.42 984.29,171.79 L 984.50 166.50 L 989.25 166.80 C993.28,167.05 993.99,166.83 993.96,165.30 C993.89,162.10 982.17,136.51 980.63,136.19 C979.81,136.02 977.25,137.26 974.92,138.94 C972.60,140.62 970.07,142.00 969.30,142.00 C966.92,142.00 964.88,148.62 965.20,155.33 L 965.50 161.50 L 970.50 163.15 L 975.50 164.81 L 975.80 169.91 C976.02,173.61 975.71,175.17 974.69,175.56 C973.91,175.86 967.70,175.16 960.89,174.00 C954.07,172.84 944.67,171.25 940.00,170.46 C925.74,168.06 926.31,168.31 925.66,164.31 C924.78,158.86 926.26,157.00 931.45,157.00 C938.52,157.00 939.00,156.55 939.00,149.94 C939.00,146.73 939.73,141.49 940.61,138.30 C941.50,135.10 942.65,125.09 943.17,116.00 C944.76,88.25 944.89,90.68 941.75,89.78 C932.74,87.22 933.47,87.89 933.82,82.46 C934.38,73.98 935.11,73.87 957.00,79.06 C963.88,80.69 971.98,82.26 975.01,82.55 C982.62,83.29 983.13,83.75 982.39,89.20 C981.48,95.78 980.85,96.49 977.07,95.17 C974.42,94.25 973.64,94.36 972.10,95.90 C969.85,98.15 967.48,113.35 967.90,122.75 C968.01,125.23 970.12,125.71 972.18,123.72 C974.26,121.70 990.23,110.42 993.00,109.02 C996.79,107.10 1000.00,103.85 1000.00,101.95 C1000.00,100.31 996.74,98.50 992.50,97.77 C990.78,97.47 990.54,96.75 990.76,92.54 C990.90,89.85 991.22,87.45 991.46,87.21 C992.20,86.47 1012.21,89.09 1018.00,90.68 C1021.03,91.52 1026.43,92.50 1030.00,92.85 L 1036.50 93.50 L 1036.81 98.33 C1037.19,104.36 1035.89,106.21 1032.16,104.91 C1028.83,103.75 1021.38,105.77 1017.29,108.95 C1015.76,110.14 1011.63,112.92 1008.13,115.11 C1001.78,119.10 1001.76,119.12 1002.38,122.96 C1003.44,129.60 1019.79,165.75 1023.77,170.25 C1024.62,171.22 1027.05,172.47 1029.16,173.04 L 1033.00 174.08 L 1033.00 179.48 C1033.00,182.45 1032.66,185.06 1032.25,185.28 C1031.84,185.50 1029.93,185.37 1028.00,184.98 ZM 1526.75 56.26 C1523.58,56.02 1522.00,55.43 1522.00,54.52 C1522.00,51.12 1503.69,49.86 1473.00,51.14 C1438.83,52.57 1438.24,52.58 1437.42,51.75 C1436.31,50.64 1438.80,48.26 1444.37,45.09 C1448.70,42.62 1450.24,42.25 1454.27,42.72 C1456.90,43.02 1459.29,43.66 1459.58,44.13 C1459.88,44.61 1465.13,45.00 1471.26,45.00 C1477.95,45.00 1482.02,44.64 1481.45,44.09 C1480.18,42.88 1467.48,41.00 1460.56,41.00 C1454.11,41.00 1453.35,39.59 1457.96,36.19 C1461.53,33.55 1470.99,33.08 1472.95,35.44 C1477.01,40.33 1516.34,47.79 1531.43,46.53 C1539.62,45.85 1544.00,46.33 1544.00,47.89 C1544.00,49.07 1533.86,57.02 1532.62,56.82 C1532.00,56.72 1529.36,56.47 1526.75,56.26 ZM 1186.50 53.99 C1172.86,52.75 1165.32,49.72 1166.32,45.88 C1166.73,44.33 1166.10,43.88 1162.84,43.36 C1155.21,42.14 1160.73,40.77 1176.67,39.93 C1185.91,39.44 1192.87,39.47 1193.39,39.99 C1193.92,40.52 1193.10,41.15 1191.39,41.51 C1184.63,42.97 1179.89,45.22 1180.20,46.81 C1180.60,48.90 1183.99,49.78 1192.00,49.89 C1201.88,50.02 1203.30,49.42 1202.55,45.43 C1202.07,42.85 1202.40,41.71 1204.05,40.17 C1207.52,36.93 1213.78,36.03 1233.64,35.90 C1250.46,35.79 1253.08,36.00 1257.86,37.84 C1264.09,40.23 1267.00,42.56 1267.00,45.15 C1267.00,46.44 1267.73,47.00 1269.44,47.00 C1271.83,47.00 1273.74,48.59 1272.65,49.68 C1271.88,50.45 1243.06,51.96 1241.38,51.32 C1238.74,50.30 1240.03,49.19 1245.25,47.97 C1254.83,45.72 1256.33,43.87 1250.53,41.45 C1246.75,39.87 1232.39,39.47 1230.16,40.88 C1229.30,41.42 1228.94,43.12 1229.16,45.55 C1229.46,48.91 1229.14,49.57 1226.42,51.17 C1221.08,54.31 1203.65,55.54 1186.50,53.99 ZM 112.00 54.61 C108.43,53.95 103.98,52.53 102.12,51.45 C100.26,50.38 97.09,48.60 95.07,47.50 C90.13,44.81 85.00,40.84 85.00,39.70 C85.00,39.16 88.00,39.05 92.25,39.44 C111.29,41.18 164.50,37.47 165.71,34.33 C166.03,33.49 167.92,33.00 170.86,33.00 C174.63,33.00 177.09,33.93 183.92,37.95 C194.59,44.23 195.95,45.51 193.96,47.37 C193.16,48.12 190.97,49.25 189.10,49.87 C184.74,51.32 165.98,51.33 158.78,49.89 C153.67,48.86 153.06,48.94 151.14,50.86 C149.99,52.01 148.03,53.17 146.78,53.45 C133.99,56.25 122.90,56.62 112.00,54.61 ZM 138.92 47.45 C140.15,46.28 139.98,45.94 137.72,45.08 C136.28,44.54 133.39,44.00 131.30,43.89 C125.31,43.58 111.00,45.12 111.00,46.07 C111.00,46.55 112.24,47.63 113.75,48.49 C115.97,49.73 118.54,49.92 127.00,49.43 C133.81,49.04 138.00,48.34 138.92,47.45 ZM 176.07 44.33 C176.70,43.70 176.89,42.63 176.48,41.96 C175.65,40.63 158.69,41.41 154.66,42.97 C152.41,43.84 152.89,44.24 157.50,45.37 C161.18,46.27 174.89,45.51 176.07,44.33 ZM 388.50 54.30 C383.57,53.63 363.64,48.82 361.75,47.84 C359.40,46.62 359.51,42.33 361.92,41.04 C368.24,37.66 395.60,34.08 415.50,34.04 C423.87,34.02 444.77,36.03 451.54,37.50 C462.81,39.95 466.05,44.87 458.67,48.34 C449.03,52.88 405.44,56.58 388.50,54.30 ZM 420.05 48.00 C442.15,46.36 450.36,43.98 444.81,40.82 C438.38,37.15 375.00,41.89 375.00,46.04 C375.00,48.94 395.40,49.83 420.05,48.00 ZM 656.50 54.42 C648.63,53.28 630.31,48.50 628.75,47.18 C622.48,41.85 632.80,37.87 659.00,35.49 C679.18,33.65 688.92,33.66 704.99,35.54 C724.62,37.82 732.34,41.06 729.39,45.75 C726.41,50.48 707.03,53.81 678.86,54.43 C668.21,54.66 658.15,54.66 656.50,54.42 ZM 687.70 47.98 C710.78,46.15 719.08,43.73 712.36,40.78 C708.16,38.93 677.34,39.35 663.00,41.44 C644.00,44.21 639.78,45.77 645.25,47.97 C648.33,49.21 672.15,49.22 687.70,47.98 Z" fill="rgba(0,0,0,1)"/>
</g>
</svg>