<svg xmlns="http://www.w3.org/2000/svg" width="1147" height="412" viewBox="0 0 1147 412">
<g>
<path d="M 975.50 402.62 C962.11,399.96 949.05,391.08 943.00,380.50 C936.75,369.57 935.49,352.78 940.01,340.69 C945.48,326.07 958.82,317.24 971.00,320.19 C973.47,320.78 975.94,321.67 976.48,322.17 C977.02,322.66 977.97,326.08 978.60,329.78 C981.26,345.41 985.77,355.89 991.14,358.90 C994.82,360.97 999.32,358.96 1001.56,354.24 C1004.87,347.25 1002.19,328.60 992.06,288.24 C989.30,277.23 985.95,264.68 984.63,260.36 C982.00,251.79 976.67,232.16 975.03,225.00 C973.18,216.99 971.00,198.81 971.00,191.50 C971.00,164.68 986.41,138.43 1008.33,127.91 C1024.59,120.11 1043.01,120.83 1049.86,129.55 C1056.38,137.84 1051.75,156.57 1039.00,173.47 L 1033.74 180.44 L 1034.39 189.70 C1035.03,198.79 1037.07,212.62 1038.94,220.50 C1039.46,222.70 1040.65,227.88 1041.57,232.00 C1042.50,236.12 1043.60,239.88 1044.02,240.34 C1045.45,241.92 1063.06,217.84 1068.76,206.50 C1077.71,188.69 1076.98,171.41 1066.28,147.83 C1063.07,140.76 1062.89,139.87 1064.00,136.49 C1065.68,131.41 1070.39,126.36 1076.41,123.20 C1080.77,120.91 1082.73,120.53 1090.00,120.53 C1096.97,120.52 1099.29,120.94 1102.87,122.84 C1115.88,129.75 1124.00,146.68 1124.00,166.89 C1124.00,196.38 1103.31,233.86 1065.55,272.79 C1060.59,277.90 1056.26,282.63 1055.92,283.29 C1055.59,283.96 1055.73,289.67 1056.23,296.00 C1057.40,310.84 1056.51,338.65 1054.60,347.07 C1047.61,377.85 1027.31,398.46 999.92,402.57 C988.88,404.23 983.70,404.24 975.50,402.62 ZM 825.22 337.45 C794.02,331.75 771.24,315.39 760.89,291.25 C759.78,288.66 758.69,286.36 758.47,286.14 C758.25,285.92 755.53,288.06 752.43,290.89 C732.54,309.07 715.56,318.00 700.88,318.00 C674.90,318.00 664.93,298.67 666.33,251.00 C666.62,240.82 667.18,231.26 667.55,229.75 C668.44,226.17 667.46,226.20 657.74,230.11 C651.96,232.44 649.87,233.78 649.56,235.37 C648.69,239.73 646.99,274.99 647.00,288.66 L 647.00 302.82 L 643.93 305.40 C636.31,311.82 620.27,312.75 609.42,307.41 C597.98,301.78 587.16,288.11 585.39,277.04 C584.59,272.04 583.59,271.50 577.96,273.01 C571.87,274.65 558.81,274.36 554.33,272.49 L 550.60 270.94 L 548.05 274.20 C532.09,294.64 515.10,306.75 496.91,310.62 C491.65,311.74 486.25,312.06 478.30,311.73 C468.01,311.31 466.48,310.98 459.57,307.69 C446.75,301.60 439.29,292.95 433.97,278.00 C432.69,274.42 431.57,271.38 431.47,271.23 C431.37,271.07 428.65,271.64 425.43,272.48 C417.75,274.48 405.03,274.46 400.22,272.44 L 396.50 270.88 L 392.56 275.69 C379.43,291.74 365.05,302.90 350.67,308.22 C340.08,312.13 323.22,313.20 313.08,310.60 C288.73,304.35 275.59,283.09 275.65,250.00 C275.69,219.37 286.40,186.29 304.77,160.00 C310.78,151.41 326.20,136.35 333.33,132.12 C355.63,118.89 381.57,120.83 386.14,136.08 L 387.31 139.97 L 390.90 137.74 C395.42,134.94 404.88,134.72 409.71,137.30 C413.96,139.56 419.44,146.89 421.99,153.70 C428.19,170.27 426.84,192.08 417.92,219.59 C415.76,226.24 414.00,232.18 414.00,232.79 C414.00,235.59 427.45,236.08 429.97,233.37 C430.42,232.89 431.52,228.80 432.42,224.27 C441.87,176.72 468.25,138.65 500.56,125.95 C509.15,122.57 524.41,122.55 531.27,125.90 C535.28,127.87 540.00,132.43 540.00,134.34 C540.00,134.63 540.45,136.06 541.00,137.51 L 542.00 140.14 L 544.49 138.19 C545.86,137.11 548.98,135.93 551.43,135.56 C563.16,133.80 572.82,141.71 577.75,157.11 C579.07,161.22 579.48,166.07 579.49,177.50 C579.50,194.60 578.19,202.18 572.04,220.71 C567.49,234.43 567.70,235.23 575.91,235.23 C581.87,235.23 590.33,231.52 594.99,226.85 C597.48,224.36 598.00,223.04 598.00,219.15 C598.00,210.27 605.20,156.80 610.01,130.00 C611.15,123.68 612.50,116.03 613.02,113.00 C614.54,104.18 621.69,77.06 625.05,67.39 C632.16,46.91 643.03,28.83 652.11,22.38 C666.57,12.11 683.81,9.28 696.83,15.04 C702.98,17.76 705.40,20.18 707.98,26.19 C712.60,36.91 711.56,49.96 704.54,69.50 C700.21,81.52 697.42,87.72 685.16,112.50 C667.41,148.39 661.13,163.62 655.93,183.42 C652.74,195.54 652.36,199.00 654.22,199.00 C655.75,199.00 677.06,190.10 678.74,188.76 C679.43,188.21 682.08,183.79 684.65,178.93 C693.27,162.57 712.49,139.85 721.67,135.17 C729.20,131.33 734.04,130.64 740.98,132.42 C749.57,134.62 755.87,139.29 759.56,146.21 C762.15,151.06 764.18,162.04 763.48,167.44 C761.84,180.20 755.84,185.92 730.00,199.36 L 717.50 205.87 L 717.17 215.18 C716.74,227.18 718.71,246.77 721.15,254.70 C724.64,266.07 730.97,267.82 741.14,260.21 C750.28,253.39 754.71,248.08 755.52,243.00 C758.65,223.40 770.43,204.16 783.27,197.66 C793.02,192.73 805.84,192.94 812.44,198.13 C814.76,199.96 815.00,200.82 815.02,207.32 C815.09,236.10 822.96,260.96 836.19,274.19 C848.40,286.40 866.81,290.88 878.85,284.56 C887.30,280.12 893.89,268.34 894.72,256.20 C895.84,239.87 889.12,225.69 865.59,194.65 C860.52,187.97 854.34,179.80 851.85,176.50 C836.41,156.05 828.66,136.21 827.08,113.08 C826.13,99.24 827.12,89.46 830.61,78.03 C840.81,44.69 864.82,21.04 895.72,13.90 C912.40,10.04 935.08,12.59 948.44,19.82 C972.53,32.85 980.85,63.91 966.04,85.44 C963.16,89.63 958.20,94.01 956.35,93.99 C955.88,93.99 951.00,90.61 945.51,86.49 C929.17,74.23 917.34,69.00 905.97,69.00 C899.72,69.00 895.38,71.21 891.60,76.32 C888.41,80.62 888.11,92.78 890.98,101.70 C893.84,110.61 901.07,123.87 910.51,137.50 C948.37,192.20 956.24,207.82 958.47,232.70 C960.04,250.29 953.50,273.04 941.98,290.02 C925.10,314.91 901.40,330.73 871.50,337.06 C860.73,339.34 836.67,339.55 825.22,337.45 ZM 354.50 261.43 C359.79,258.92 366.40,251.67 370.49,243.89 L 374.27 236.69 L 372.60 227.33 C370.20,213.89 369.53,197.22 370.91,185.35 C371.93,176.60 375.33,161.39 377.53,155.75 C378.64,152.90 376.69,153.71 369.76,158.95 C348.07,175.37 331.49,212.70 333.30,241.03 C333.94,251.02 336.06,257.03 340.19,260.50 C343.70,263.46 349.45,263.83 354.50,261.43 ZM 509.67 260.92 C515.34,258.17 521.27,251.30 525.49,242.57 L 528.90 235.50 L 526.83 225.50 C522.68,205.56 524.60,175.24 531.03,158.92 C532.10,156.22 532.72,154.00 532.41,154.00 C530.15,154.00 521.85,160.45 515.71,166.97 C500.76,182.86 491.20,204.05 487.95,228.47 C486.71,237.77 487.73,247.79 490.66,255.11 C493.67,262.64 501.30,264.97 509.67,260.92 ZM 164.00 318.00 C146.28,316.05 122.07,306.24 98.69,291.54 C93.84,288.49 89.34,286.00 88.68,286.00 C88.02,286.00 85.10,287.96 82.18,290.36 C69.77,300.54 56.88,306.11 50.57,304.02 C37.63,299.75 28.04,283.75 27.68,265.82 C27.47,255.82 28.78,253.12 35.70,249.25 C40.80,246.40 53.37,243.25 63.04,242.39 C67.14,242.03 71.11,241.41 71.85,241.02 C74.78,239.47 89.23,201.43 97.50,173.50 C105.50,146.46 112.67,116.83 117.48,90.96 C121.08,71.56 121.30,72.60 113.75,73.42 C106.70,74.19 91.97,77.76 81.50,81.24 C64.27,86.96 48.42,98.58 39.46,112.06 C35.22,118.44 34.62,118.93 30.43,119.56 C21.61,120.89 15.62,117.98 12.22,110.74 C3.99,93.23 13.73,64.53 33.78,47.20 C41.15,40.83 58.17,29.71 65.66,26.36 C82.55,18.81 98.60,14.29 124.00,9.91 C135.37,7.95 178.95,8.26 190.50,10.38 C228.48,17.36 249.67,30.26 260.95,53.26 C271.43,74.64 270.32,100.60 257.85,125.34 C251.57,137.82 239.35,155.06 228.13,167.27 C224.21,171.54 221.02,175.37 221.05,175.77 C221.08,176.17 224.80,178.84 229.32,181.70 C258.27,200.00 272.41,226.70 268.55,255.75 C266.29,272.78 260.35,285.45 249.63,296.10 C237.98,307.68 223.17,314.64 204.00,317.55 C194.18,319.04 175.35,319.25 164.00,318.00 ZM 203.45 267.61 C208.55,263.72 210.37,259.05 209.72,251.50 C208.41,236.06 197.74,223.98 172.61,209.48 C163.60,204.28 141.92,194.00 139.97,194.00 C139.53,194.00 137.95,197.71 136.46,202.25 C133.07,212.57 124.33,231.20 118.46,240.62 C116.01,244.55 114.00,248.41 114.00,249.19 C114.00,251.68 161.90,266.66 180.50,269.97 C183.25,270.46 188.69,270.78 192.59,270.67 C198.70,270.50 200.21,270.08 203.45,267.61 ZM 186.26 161.50 C187.31,159.85 190.18,154.25 192.64,149.06 C202.97,127.24 206.27,104.72 200.85,93.00 C197.58,85.91 193.03,81.47 185.27,77.79 C177.98,74.33 168.87,71.73 167.78,72.82 C167.37,73.23 166.12,78.80 165.01,85.20 C162.16,101.60 154.52,138.36 151.12,152.00 C149.54,158.32 148.38,163.73 148.53,164.00 C148.68,164.27 156.81,164.50 166.58,164.50 L 184.34 164.50 L 186.26 161.50 Z" fill="rgba(0,0,0,1)"/>
</g>
</svg>