<svg xmlns="http://www.w3.org/2000/svg" width="703" height="355" viewBox="0 0 703 355">
<g>
<path d="M 277.89 261.09 C277.12,261.57 275.71,261.98 274.75,261.98 C273.28,262.00 273.00,261.05 273.00,256.01 C273.00,247.48 270.40,241.50 263.94,235.18 C259.02,230.38 256.21,228.73 241.50,222.00 C236.08,219.53 231.55,218.00 229.62,218.00 C228.45,218.00 221.42,216.25 213.99,214.11 C206.57,211.97 192.62,208.34 183.00,206.05 C173.38,203.76 164.72,201.46 163.76,200.94 C162.81,200.42 161.13,200.00 160.04,200.00 C158.95,200.00 149.30,197.12 138.59,193.59 C118.45,186.96 93.64,175.65 85.33,169.32 C83.03,167.56 79.88,165.46 78.33,164.64 C73.89,162.29 59.96,150.75 55.00,145.32 C37.78,126.43 22.05,100.16 14.64,77.89 C11.33,67.94 6.06,42.52 5.34,33.00 C3.95,14.81 11.79,8.57 25.91,16.63 C41.31,25.43 54.53,32.22 65.73,37.08 C68.78,38.40 69.80,39.35 69.38,40.46 C68.91,41.68 69.58,42.00 72.64,42.00 C74.76,42.00 81.22,43.77 87.00,45.93 C92.77,48.10 99.97,50.56 103.00,51.41 C106.03,52.26 111.65,53.86 115.50,54.98 C126.99,58.31 156.91,63.86 188.00,68.44 C211.73,71.94 238.61,77.74 256.50,83.24 C295.91,95.34 326.87,115.85 342.93,140.52 C348.13,148.50 350.60,151.09 352.37,150.41 C353.18,150.10 356.38,146.52 359.50,142.46 C366.74,133.01 383.65,116.38 393.60,108.92 C405.24,100.21 420.28,92.91 439.50,86.66 C470.37,76.61 464.49,77.81 545.50,64.92 C574.11,60.36 585.22,57.66 611.50,48.85 C636.58,40.44 656.38,31.51 674.46,20.47 C684.80,14.15 688.45,13.58 693.57,17.49 C695.37,18.86 697.10,21.22 697.43,22.74 C698.74,28.87 693.45,67.55 690.87,70.66 C690.26,71.40 690.03,72.00 690.36,72.00 C690.70,72.00 690.03,74.36 688.87,77.25 C687.71,80.14 685.52,85.88 684.00,90.00 C680.73,98.83 677.96,103.97 669.17,117.50 C660.80,130.40 657.08,134.85 642.46,149.46 C634.70,157.22 627.77,163.12 622.96,166.06 C597.36,181.70 594.40,183.10 590.50,181.40 C588.85,180.68 588.06,180.07 588.75,180.05 C589.44,180.02 590.03,179.44 590.08,178.75 C590.12,178.06 594.65,175.27 600.14,172.54 C605.63,169.81 613.06,165.65 616.65,163.29 C620.25,160.93 623.64,159.00 624.19,159.00 C625.64,159.00 652.15,132.30 654.50,128.46 C655.60,126.67 658.32,122.79 660.55,119.85 C668.87,108.86 677.16,92.86 682.38,77.77 C687.60,62.63 692.00,40.04 692.00,28.35 C692.00,20.37 687.26,18.91 679.22,24.44 C676.47,26.33 671.58,29.17 668.36,30.75 C665.14,32.33 657.62,36.18 651.66,39.31 C645.70,42.44 640.17,45.00 639.36,45.00 C638.56,45.00 636.54,45.70 634.88,46.56 C629.87,49.15 613.28,54.95 599.33,58.98 C592.09,61.07 585.70,63.06 585.15,63.41 C584.59,63.76 580.16,64.68 575.31,65.46 C570.47,66.24 564.70,67.33 562.50,67.88 C560.30,68.43 556.25,69.16 553.50,69.50 C550.75,69.84 544.67,70.76 540.00,71.55 C524.27,74.21 506.56,76.92 498.19,77.94 C493.62,78.50 489.48,79.21 488.99,79.51 C488.51,79.81 483.29,80.94 477.39,82.02 C471.50,83.10 463.93,84.85 460.59,85.90 C457.24,86.95 452.48,88.35 450.00,89.01 C444.72,90.41 423.28,98.45 417.50,101.19 C415.30,102.23 411.48,104.38 409.00,105.97 C406.52,107.56 402.25,110.22 399.50,111.88 C386.73,119.59 361.73,147.35 355.55,160.69 C354.26,163.48 352.75,166.04 352.19,166.38 C351.62,166.73 349.17,163.25 346.67,158.56 C335.50,137.56 323.31,123.87 305.00,111.76 C296.10,105.87 276.51,96.19 266.00,92.48 C242.96,84.36 211.11,77.54 160.50,69.91 C126.94,64.85 80.29,52.28 71.82,46.02 C70.31,44.91 68.47,44.00 67.73,44.00 C66.98,44.00 64.48,43.09 62.17,41.97 C59.86,40.85 56.97,39.50 55.74,38.97 C54.51,38.44 52.83,37.63 52.00,37.16 C51.17,36.70 47.80,35.05 44.50,33.49 C41.20,31.93 34.90,28.53 30.50,25.93 C20.82,20.21 15.60,18.54 13.61,20.53 C11.17,22.97 10.89,28.66 12.58,41.21 C13.49,47.97 14.24,54.17 14.25,55.00 C14.26,55.83 14.60,56.95 15.00,57.50 C15.40,58.05 16.52,61.88 17.50,66.00 C18.48,70.12 19.69,74.32 20.21,75.31 C20.72,76.31 21.32,78.09 21.55,79.27 C21.78,80.44 22.60,82.77 23.37,84.45 C28.21,94.90 28.77,96.52 27.80,97.12 C26.47,97.94 28.03,100.50 29.86,100.50 C30.61,100.50 33.08,103.96 35.36,108.18 C47.11,129.97 64.66,149.03 85.33,162.46 C95.60,169.12 115.58,179.24 123.60,181.82 C126.95,182.91 131.00,184.46 132.60,185.27 C138.14,188.10 184.65,200.93 200.99,204.15 C213.07,206.52 250.37,218.62 256.23,222.05 C268.30,229.15 270.66,231.33 275.06,239.50 C277.61,244.22 278.40,247.07 278.79,252.86 C279.16,258.46 278.95,260.42 277.89,261.09 ZM 283.50 345.87 C274.70,346.50 266.15,346.94 264.50,346.86 C255.51,346.42 242.11,344.87 231.50,343.03 C214.30,340.05 199.10,339.43 191.05,341.36 C180.61,343.88 179.69,341.55 186.11,328.77 C188.73,323.56 192.43,318.30 196.27,314.29 C203.13,307.16 217.35,297.54 227.00,293.52 C239.92,288.14 254.53,281.47 256.00,280.28 C256.83,279.61 259.06,278.03 260.98,276.76 C262.89,275.49 266.16,272.21 268.24,269.48 C270.32,266.74 272.69,264.56 273.50,264.64 C274.36,264.72 274.69,264.29 274.30,263.64 C273.92,263.01 274.38,263.12 275.31,263.87 C276.24,264.63 277.00,266.08 277.00,267.10 C277.00,269.38 264.67,282.66 261.67,283.60 C260.48,283.98 256.82,286.02 253.55,288.14 C250.28,290.26 246.70,292.00 245.61,292.00 C242.07,292.00 215.56,305.71 209.48,310.69 C200.88,317.73 195.33,323.89 192.25,329.82 C189.91,334.33 190.30,334.50 203.25,334.53 C212.04,334.55 221.58,335.50 237.00,337.89 C256.74,340.94 259.81,341.17 274.50,340.68 C298.01,339.90 310.25,336.92 329.35,327.34 C356.15,313.90 375.31,296.52 392.28,270.25 C408.40,245.28 419.50,235.29 444.08,223.62 C460.58,215.79 476.07,211.02 530.50,197.01 C551.81,191.52 569.86,186.23 571.50,184.98 C574.15,182.97 583.93,180.77 587.36,181.41 C591.71,182.22 591.96,183.16 588.25,184.69 C586.74,185.32 582.33,187.16 578.46,188.78 C574.59,190.41 567.84,192.68 563.46,193.83 C559.08,194.97 551.06,197.25 545.64,198.89 C540.22,200.53 534.37,202.09 532.64,202.35 C530.91,202.62 528.15,203.30 526.50,203.86 C523.72,204.80 521.24,205.46 511.25,207.92 C509.19,208.43 503.90,209.86 499.50,211.09 C495.10,212.33 487.00,214.55 481.50,216.05 C450.11,224.56 425.66,237.52 412.41,252.68 C409.61,255.88 403.81,263.67 399.51,270.00 C377.28,302.72 367.71,311.93 337.00,330.21 C333.98,332.01 327.67,334.98 323.00,336.82 C306.63,343.24 300.38,344.67 283.50,345.87 Z" fill="rgb(5,5,5)"/>
<path d="M 598.53 180.27 C595.00,182.08 592.15,183.33 589.32,184.38 C587.85,184.93 584.99,186.07 582.08,187.26 C584.77,186.14 587.20,185.12 588.25,184.69 C591.96,183.16 591.71,182.22 587.36,181.41 C585.43,181.05 581.50,181.59 577.95,182.49 C578.34,182.35 578.73,182.22 579.12,182.09 C582.92,180.85 589.54,177.88 596.39,174.49 C592.73,176.49 590.11,178.23 590.08,178.75 C590.03,179.44 589.44,180.02 588.75,180.05 C588.06,180.07 588.85,180.68 590.50,181.40 C592.44,182.25 594.15,182.33 598.53,180.27 ZM 277.89 261.09 C278.21,260.88 278.46,260.56 278.63,260.04 C278.46,261.28 278.23,262.53 277.93,263.77 C277.65,264.95 277.36,265.97 276.99,266.91 C276.91,265.91 276.18,264.58 275.31,263.87 C274.38,263.12 273.92,263.01 274.30,263.64 C274.69,264.29 274.36,264.72 273.50,264.64 C272.69,264.56 270.32,266.74 268.24,269.48 L 268.23 269.49 C270.97,265.57 272.56,261.44 273.01,257.29 C273.06,261.22 273.41,262.00 274.75,261.98 C275.71,261.98 277.12,261.57 277.89,261.09 ZM 67.64 38.00 C77.80,42.32 89.78,47.03 97.78,49.76 C94.49,48.65 90.48,47.24 87.00,45.93 C81.22,43.77 74.76,42.00 72.64,42.00 C69.58,42.00 68.91,41.68 69.38,40.46 C69.70,39.62 69.20,38.88 67.64,38.00 ZM 24.74 87.42 C25.94,89.95 27.56,93.20 29.75,97.50 C35.69,109.21 41.51,118.93 47.71,127.35 C43.10,121.27 38.96,114.85 35.36,108.18 C33.08,103.96 30.61,100.50 29.86,100.50 C28.03,100.50 26.47,97.94 27.80,97.12 C28.67,96.58 28.31,95.22 24.74,87.42 ZM 255.31 340.41 C260.00,340.71 264.81,340.69 272.50,340.54 C282.58,340.34 290.50,339.78 297.65,338.56 C290.91,339.76 283.54,340.38 274.50,340.68 C266.06,340.96 261.45,341.01 255.31,340.41 ZM 75.01 155.09 C81.35,159.82 89.14,164.83 96.98,169.29 C92.60,166.90 88.50,164.51 85.33,162.46 C81.80,160.16 78.35,157.70 75.01,155.09 ZM 48.36 28.83 C41.46,25.31 33.99,21.24 25.91,16.63 C23.56,15.29 21.39,14.34 19.41,13.78 C21.39,14.34 23.56,15.29 25.91,16.62 C28.43,18.06 34.33,21.26 39.00,23.74 C42.65,25.67 46.36,27.69 48.36,28.83 ZM 259.44 277.80 C257.99,278.80 256.61,279.79 256.00,280.28 C255.34,280.82 252.00,282.47 247.35,284.62 C252.04,282.44 255.25,280.80 255.84,280.24 C256.50,279.61 258.04,278.57 259.44,277.80 ZM 275.26 270.20 C274.15,271.85 272.58,273.65 270.21,276.16 C269.31,277.11 268.39,278.04 267.49,278.90 C270.31,276.14 273.39,272.71 275.26,270.20 ZM 271.15 245.39 C269.62,241.83 267.22,238.39 263.94,235.18 C267.37,238.53 269.71,241.79 271.15,245.39 ZM 278.94 255.96 C278.92,255.07 278.87,254.05 278.79,252.86 C278.71,251.71 278.62,250.67 278.50,249.72 C278.83,251.76 278.98,253.85 278.94,255.96 ZM 624.19 159.00 C623.78,159.00 621.85,160.04 619.44,161.52 C621.82,160.04 623.75,159.00 624.16,159.00 C624.91,159.00 632.16,152.08 639.40,144.77 C632.17,152.08 624.93,159.00 624.19,159.00 ZM 193.82 334.26 C191.03,333.92 190.73,333.14 191.52,331.31 C190.75,333.10 191.04,333.89 193.82,334.26 ZM 22.61 82.64 C22.84,83.21 23.10,83.83 23.41,84.53 L 23.37 84.45 C23.12,83.90 22.86,83.27 22.61,82.64 Z" fill="rgb(10,10,10)"/>
</g>
</svg>