<svg xmlns="http://www.w3.org/2000/svg" width="938" height="472" viewBox="0 0 469 236">
    <defs>
        <!-- Gradiente principal -->
        <linearGradient id="wingGradient" x1="0%" y1="0%" x2="100%" y2="0%">
            <stop offset="0%" stop-color="#B58CFF"/>
            <stop offset="55%" stop-color="#CFA6FF"/>
            <stop offset="100%" stop-color="#FFB26B"/>
        </linearGradient>

        <!-- Gradiente suave interior -->
        <linearGradient id="wingGradientSoft" x1="0%" y1="0%" x2="100%" y2="0%">
            <stop offset="0%" stop-color="#C9A8FF"/>
            <stop offset="100%" stop-color="#FFD2A6"/>
        </linearGradient>

        <!-- Glow -->
        <filter id="softGlow" x="-25%" y="-25%" width="150%" height="150%">
            <feGaussianBlur stdDeviation="5" result="blur"/>
            <feMerge>
                <feMergeNode in="blur"/>
                <feMergeNode in="SourceGraphic"/>
            </feMerge>
        </filter>
    </defs>

    <g filter="url(#softGlow)">
        <path d="M 188.99 175.26 C183.96,179.23 178.00,183.05 178.00,182.29 C178.00,181.93 178.95,179.66 180.12,177.25 C183.95,169.33 181.52,160.38 173.84,154.15 C172.25,152.86 167.02,150.21 162.22,148.26 C157.43,146.32 153.14,144.11 152.70,143.36 C152.26,142.61 151.14,141.98 150.20,141.96 C148.94,141.94 149.13,141.58 150.93,140.58 C153.46,139.18 154.58,135.00 152.43,135.00 C151.65,135.00 151.40,134.20 151.75,132.85 C152.23,131.01 151.97,130.78 149.90,131.23 C148.58,131.51 146.71,132.07 145.75,132.48 C144.68,132.93 144.00,132.77 144.00,132.08 C144.00,131.46 145.30,130.69 146.88,130.37 C148.47,130.06 151.28,128.33 153.13,126.55 C155.48,124.28 157.50,123.27 159.82,123.21 C161.64,123.17 163.67,122.70 164.32,122.18 C164.97,121.66 166.93,120.93 168.68,120.55 C170.43,120.18 172.37,119.25 173.00,118.50 C173.63,117.75 175.46,116.84 177.07,116.48 C178.68,116.13 180.00,115.20 180.00,114.42 C180.00,113.64 180.84,113.00 181.88,113.00 C182.91,113.00 184.32,112.32 185.00,111.50 C185.68,110.68 187.05,110.00 188.04,110.00 C189.02,110.00 190.88,109.10 192.17,108.01 C196.25,104.52 201.96,101.05 204.78,100.35 C206.27,99.97 207.95,99.12 208.50,98.46 C209.05,97.79 210.98,96.98 212.78,96.64 C214.58,96.31 217.14,94.87 218.47,93.44 C220.71,91.02 226.00,89.33 226.00,91.03 C226.00,91.44 227.56,93.52 229.47,95.64 C230.84,97.17 231.75,98.13 232.11,99.26 C232.76,101.35 231.48,104.04 227.68,112.08 C227.54,112.38 227.40,112.69 227.25,113.00 C220.12,128.09 219.00,130.59 219.00,131.34 C219.00,133.01 212.15,146.26 206.62,155.30 C200.97,164.52 197.28,168.70 188.99,175.26 Z"
              fill="rgb(202,145,203)"/>
        <path d="M 82.46 115.42 C81.21,117.33 79.96,117.98 77.63,117.91 C74.01,117.81 67.98,116.21 66.46,114.96 C65.89,114.49 63.19,113.60 60.46,112.99 C57.73,112.38 54.60,111.08 53.50,110.10 C52.40,109.12 49.85,107.34 47.83,106.13 C40.74,101.89 28.59,87.74 21.39,75.35 C12.79,60.53 8.65,49.54 6.05,34.56 C3.74,21.22 3.55,17.32 5.04,13.40 C7.54,6.83 12.13,6.49 21.56,12.19 C30.39,17.51 50.36,27.03 59.71,30.36 C69.70,33.92 88.09,38.91 96.67,40.39 C100.61,41.07 104.55,42.21 105.42,42.93 C107.56,44.71 107.45,47.98 105.25,48.08 C104.17,48.13 104.57,48.55 106.30,49.18 C107.92,49.77 108.98,50.82 108.80,51.65 C108.64,52.45 108.24,52.97 107.93,52.80 C107.61,52.64 106.57,53.29 105.61,54.25 C104.64,55.21 102.76,56.00 101.43,56.00 C99.94,56.00 99.00,56.58 99.00,57.50 C99.00,58.33 98.55,59.00 98.00,59.00 C96.41,59.00 96.84,63.00 98.50,63.64 C100.73,64.50 100.34,66.80 97.07,71.91 C95.46,74.44 94.00,77.17 93.82,78.00 C93.64,78.82 93.00,79.94 92.39,80.50 C91.78,81.05 90.52,83.53 89.58,86.00 C86.45,94.28 85.57,95.88 83.93,96.31 C81.87,96.85 80.53,105.08 82.31,106.22 C83.11,106.72 82.92,106.97 81.75,106.98 C80.79,106.99 80.00,107.68 80.00,108.50 C80.00,109.32 80.69,110.00 81.53,110.00 C83.89,110.00 84.33,112.56 82.46,115.42 ZM 51.43 103.59 C53.67,104.29 56.08,104.90 56.78,104.93 C58.94,105.05 59.35,102.04 57.46,99.96 C56.48,98.87 55.91,97.75 56.20,97.47 C56.94,96.73 60.00,98.05 60.00,99.11 C60.00,99.60 60.65,100.00 61.45,100.00 C64.60,100.00 73.00,84.81 73.00,79.10 C73.00,77.11 73.68,75.71 74.98,75.01 C77.28,73.78 78.71,71.39 79.39,67.65 C79.91,64.76 86.03,52.71 87.25,52.17 C87.66,51.98 88.00,50.80 88.00,49.54 C88.00,48.28 88.56,46.78 89.25,46.21 C90.55,45.13 91.00,45.00 93.50,45.00 C94.32,45.00 95.00,44.55 95.00,44.00 C95.00,43.45 93.31,42.98 91.25,42.96 C89.19,42.93 85.70,42.22 83.50,41.38 C81.30,40.54 77.47,39.43 75.00,38.91 C72.53,38.40 68.21,36.86 65.40,35.49 C62.60,34.12 59.57,33.00 58.67,33.00 C57.78,33.00 54.67,31.72 51.77,30.15 C48.87,28.58 45.37,26.96 44.00,26.54 C40.39,25.46 20.56,15.70 20.18,14.82 C20.00,14.41 18.30,13.11 16.40,11.94 C13.20,9.96 12.77,9.92 10.56,11.37 C9.25,12.23 7.87,14.34 7.49,16.05 C6.64,19.93 7.71,32.54 9.57,40.50 C10.34,43.80 10.98,47.65 10.99,49.06 C11.00,52.25 13.97,58.54 19.44,67.00 C21.76,70.57 25.07,75.70 26.80,78.39 C28.53,81.07 30.52,84.55 31.21,86.12 C31.91,87.69 33.72,89.40 35.24,89.93 C36.76,90.46 38.00,91.45 38.00,92.12 C38.00,94.35 47.30,102.30 51.43,103.59 ZM 134.93 226.00 C132.70,226.00 130.07,226.43 129.09,226.95 C127.85,227.62 126.68,227.47 125.24,226.46 C122.91,224.82 123.07,220.70 125.65,215.70 C129.80,207.68 144.33,196.38 148.99,197.54 C152.55,198.42 154.13,200.01 153.49,202.03 C153.12,203.20 153.87,204.48 155.72,205.86 C157.81,207.42 158.08,207.94 156.79,207.97 C154.35,208.01 152.94,211.22 152.71,217.27 L 152.50 222.50 L 145.75 223.37 C142.04,223.84 139.00,224.63 139.00,225.12 C139.00,225.60 137.17,226.00 134.93,226.00 ZM 127.00 221.75 C127.00,222.85 127.44,222.81 129.22,221.56 C130.44,220.70 132.58,219.99 133.97,219.98 C137.18,219.97 138.46,219.02 138.67,216.50 C138.76,215.40 139.30,213.04 139.85,211.25 C140.88,207.94 140.00,207.05 137.38,208.77 C135.14,210.23 127.00,220.41 127.00,221.75 ZM 77.25 114.34 C79.52,115.25 80.00,115.02 80.00,113.00 C80.00,111.67 79.33,111.00 78.00,111.00 C75.81,111.00 75.24,113.53 77.25,114.34 Z"
              fill="rgb(195,160,234)"/>
        <path d="M 51.43 103.59 C47.30,102.30 38.00,94.35 38.00,92.12 C38.00,91.45 36.76,90.46 35.24,89.93 C33.72,89.40 31.91,87.69 31.21,86.12 C30.52,84.55 28.53,81.07 26.80,78.39 C25.07,75.70 21.76,70.57 19.44,67.00 C13.97,58.54 11.00,52.25 10.99,49.06 C10.98,47.65 10.34,43.80 9.57,40.50 C7.71,32.54 6.64,19.93 7.49,16.05 C7.87,14.34 9.25,12.23 10.56,11.37 C12.77,9.92 13.20,9.96 16.40,11.94 C18.30,13.11 20.00,14.41 20.18,14.82 C20.56,15.70 40.39,25.46 44.00,26.54 C45.37,26.96 48.87,28.58 51.77,30.15 C54.67,31.72 57.78,33.00 58.67,33.00 C59.57,33.00 62.60,34.12 65.40,35.49 C68.21,36.86 72.53,38.40 75.00,38.91 C77.47,39.43 81.30,40.54 83.50,41.38 C85.70,42.22 89.19,42.93 91.25,42.96 C93.31,42.98 95.00,43.45 95.00,44.00 C95.00,44.55 94.32,45.00 93.50,45.00 C91.00,45.00 90.55,45.13 89.25,46.21 C88.56,46.78 88.00,48.28 88.00,49.54 C88.00,50.80 87.66,51.98 87.25,52.17 C86.03,52.71 79.91,64.76 79.39,67.65 C78.71,71.39 77.28,73.78 74.98,75.01 C73.68,75.71 73.00,77.11 73.00,79.10 C73.00,84.81 64.60,100.00 61.45,100.00 C60.65,100.00 60.00,99.60 60.00,99.11 C60.00,98.05 56.94,96.73 56.20,97.47 C55.91,97.75 56.48,98.87 57.46,99.96 C59.35,102.04 58.94,105.05 56.78,104.93 C56.08,104.90 53.67,104.29 51.43,103.59 ZM 127.00 221.75 C127.00,220.41 135.14,210.23 137.38,208.77 C140.00,207.05 140.88,207.94 139.85,211.25 C139.30,213.04 138.76,215.40 138.67,216.50 C138.46,219.02 137.18,219.97 133.97,219.98 C132.58,219.99 130.44,220.70 129.22,221.56 C127.44,222.81 127.00,222.85 127.00,221.75 Z"
              fill="rgb(191,157,244)"/>
        <path d="M 82.46 115.42 C84.33,112.56 83.89,110.00 81.53,110.00 C80.69,110.00 80.00,109.32 80.00,108.50 C80.00,107.68 80.79,106.99 81.75,106.98 C82.92,106.97 83.11,106.72 82.31,106.22 C80.53,105.08 81.87,96.85 83.93,96.31 C85.57,95.88 86.45,94.28 89.58,86.00 C90.52,83.53 91.78,81.05 92.39,80.50 C93.00,79.94 93.64,78.82 93.82,78.00 C94.00,77.17 95.46,74.44 97.07,71.91 C100.34,66.80 100.73,64.50 98.50,63.64 C96.84,63.00 96.41,59.00 98.00,59.00 C98.55,59.00 99.00,58.33 99.00,57.50 C99.00,56.58 99.94,56.00 101.43,56.00 C102.76,56.00 104.64,55.21 105.61,54.25 C106.57,53.29 107.61,52.64 107.93,52.80 C108.24,52.97 108.64,52.45 108.80,51.65 C108.98,50.82 107.92,49.77 106.30,49.18 C104.57,48.55 104.17,48.13 105.25,48.08 C107.45,47.98 107.56,44.71 105.42,42.93 C104.55,42.21 100.61,41.07 96.67,40.39 C92.19,39.61 85.02,37.88 77.78,35.90 C86.92,38.29 96.64,40.28 106.72,41.81 C116.20,43.24 123.52,44.68 123.00,45.00 C122.47,45.33 122.98,46.25 124.12,47.05 C126.47,48.70 127.66,49.49 128.15,50.60 C128.64,51.71 128.44,53.12 128.03,56.02 C128.01,56.14 127.99,56.27 127.97,56.39 C127.30,61.10 126.52,62.85 124.07,65.09 C122.38,66.63 121.00,68.55 121.00,69.37 C121.00,70.18 119.88,72.18 118.50,73.82 C117.12,75.45 116.00,77.29 116.00,77.89 C116.00,78.50 115.57,79.00 115.05,79.00 C114.14,79.00 112.34,90.18 112.84,92.75 C112.98,93.44 112.68,94.00 112.18,94.00 C111.68,94.00 110.78,96.59 110.18,99.75 C108.15,110.41 108.14,110.91 110.14,111.55 C113.18,112.51 112.27,115.90 107.83,120.16 C104.86,123.02 104.02,124.39 104.91,124.95 C105.84,125.52 105.69,125.92 104.33,126.50 C100.91,127.96 88.01,127.61 83.66,125.95 C75.77,122.94 59.88,114.79 55.70,111.62 C55.42,111.41 55.12,111.18 54.81,110.95 C56.28,111.74 58.48,112.55 60.46,112.99 C63.19,113.60 65.89,114.49 66.46,114.96 C67.98,116.21 74.01,117.81 77.63,117.91 C79.96,117.98 81.21,117.33 82.46,115.42 ZM 134.93 226.00 C137.17,226.00 139.00,225.60 139.00,225.12 C139.00,224.63 142.04,223.84 145.75,223.37 L 152.50 222.50 L 152.71 217.27 C152.94,211.22 154.35,208.01 156.79,207.97 C158.08,207.94 157.81,207.42 155.72,205.86 C153.87,204.48 153.12,203.20 153.49,202.03 C154.13,200.01 152.55,198.42 148.99,197.54 C147.42,197.15 144.71,198.18 141.66,200.03 C146.55,196.91 152.40,194.02 159.46,191.19 C171.51,186.35 178.07,181.86 180.62,176.13 C180.47,176.51 180.30,176.88 180.12,177.25 C178.95,179.66 178.00,181.93 178.00,182.29 C178.00,182.70 179.76,181.76 182.18,180.18 C179.78,181.76 178.00,182.73 178.00,182.35 C178.00,182.02 177.33,182.31 176.51,182.99 C175.50,183.83 175.31,184.74 175.93,185.83 C176.50,186.86 176.36,188.36 175.55,189.97 C174.85,191.36 174.02,194.79 173.71,197.58 C173.39,200.37 172.17,204.30 170.98,206.31 C169.16,209.39 168.87,211.22 169.13,217.96 C169.40,225.09 169.20,226.17 167.26,227.97 C165.18,229.91 163.67,230.30 161.50,229.45 C159.43,228.64 139.48,226.00 135.57,226.02 C133.81,226.02 131.19,226.41 129.08,226.96 L 129.09 226.95 C130.07,226.43 132.70,226.00 134.93,226.00 ZM 125.45 216.10 C123.06,220.92 122.97,224.87 125.24,226.46 C126.14,227.09 126.94,227.38 127.71,227.35 C127.64,227.38 127.57,227.40 127.50,227.43 C120.01,230.04 119.31,226.21 125.45,216.10 ZM 77.25 114.34 C75.24,113.53 75.81,111.00 78.00,111.00 C79.33,111.00 80.00,111.67 80.00,113.00 C80.00,115.02 79.52,115.25 77.25,114.34 ZM 176.38 156.52 C173.90,154.12 170.48,151.97 165.95,149.88 C169.48,151.49 172.66,153.19 173.84,154.15 C174.76,154.90 175.61,155.69 176.38,156.52 ZM 52.65 109.40 C50.89,108.17 49.07,106.95 47.83,106.18 C44.00,103.84 38.78,98.74 33.66,92.64 C38.81,98.77 44.04,103.86 47.83,106.13 C49.43,107.09 51.37,108.41 52.65,109.40 ZM 181.83 171.27 C181.93,170.03 181.89,168.74 181.74,167.37 C181.70,167.07 181.66,166.77 181.62,166.48 C181.91,168.06 181.98,169.66 181.83,171.27 Z"
              fill="rgb(203,162,224)"/>
        <path d="M 86.65 126.70 C92.25,127.68 101.51,127.70 104.33,126.50 C105.69,125.92 105.84,125.52 104.91,124.95 C104.02,124.39 104.86,123.02 107.83,120.16 C112.27,115.90 113.18,112.51 110.14,111.55 C108.14,110.91 108.15,110.41 110.18,99.75 C110.78,96.59 111.68,94.00 112.18,94.00 C112.68,94.00 112.98,93.44 112.84,92.75 C112.34,90.18 114.14,79.00 115.05,79.00 C115.57,79.00 116.00,78.50 116.00,77.89 C116.00,77.29 117.12,75.45 118.50,73.82 C119.88,72.18 121.00,70.18 121.00,69.37 C121.00,68.55 122.38,66.63 124.07,65.09 C126.52,62.85 127.30,61.10 127.97,56.39 C127.99,56.27 128.01,56.14 128.03,56.02 C128.44,53.12 128.64,51.71 128.15,50.60 C127.66,49.49 126.47,48.70 124.12,47.05 C122.98,46.25 122.47,45.33 123.00,45.00 C123.30,44.81 120.92,44.24 117.00,43.51 C118.12,43.69 119.29,43.87 120.50,44.05 C143.77,47.63 147.13,48.30 145.80,49.12 C144.78,49.75 144.85,50.49 146.14,52.71 C147.37,54.81 147.50,55.92 146.68,57.18 C145.82,58.51 146.09,59.25 147.98,60.79 L 150.37 62.71 L 147.81 64.39 C146.01,65.57 145.10,67.24 144.72,70.03 C144.24,73.65 141.83,80.67 138.41,88.50 C137.68,90.15 136.56,93.97 135.91,97.00 C135.26,100.03 133.66,104.62 132.36,107.22 C128.92,114.09 129.24,116.56 134.16,120.92 C138.10,124.41 138.27,124.79 137.25,127.72 C136.27,130.52 136.38,130.88 138.34,131.37 C141.98,132.28 149.73,129.70 153.22,126.41 C154.12,125.56 155.01,124.88 155.89,124.38 C155.00,124.90 154.09,125.62 153.13,126.55 C151.28,128.33 148.47,130.06 146.88,130.37 C145.30,130.69 144.00,131.46 144.00,132.08 C144.00,132.77 144.68,132.93 145.75,132.48 C146.71,132.07 148.58,131.51 149.90,131.23 C151.97,130.78 152.23,131.01 151.75,132.85 C151.40,134.20 151.65,135.00 152.43,135.00 C154.58,135.00 153.46,139.18 150.93,140.58 C149.13,141.58 148.94,141.94 150.20,141.96 C151.14,141.98 152.26,142.61 152.70,143.36 C153.12,144.08 157.10,146.15 161.67,148.04 C157.56,146.41 152.79,144.90 147.32,143.47 C135.28,140.32 134.11,139.84 140.41,140.59 C145.16,141.15 145.26,141.11 143.48,139.33 C140.87,136.72 133.91,136.00 131.41,138.07 C130.48,138.85 128.36,138.68 123.81,137.48 C120.34,136.56 115.03,135.24 112.00,134.55 C104.24,132.76 95.26,129.93 86.65,126.70 ZM 188.99 175.26 C197.28,168.70 200.97,164.52 206.62,155.30 C211.92,146.63 218.44,134.08 218.97,131.60 C218.19,135.94 204.01,160.92 199.33,166.05 C198.05,167.46 197.00,169.32 197.00,170.20 C197.00,171.07 196.35,172.04 195.55,172.34 C193.45,173.15 190.74,178.90 191.35,181.24 C191.64,182.35 191.25,184.21 190.49,185.38 C189.44,186.97 189.33,188.50 190.03,191.50 C191.38,197.34 191.21,201.50 189.37,207.10 C188.38,210.13 187.98,213.52 188.33,215.79 C189.88,225.56 191.55,228.97 194.87,229.12 C197.45,229.23 197.44,229.25 194.50,230.00 C190.36,231.05 169.49,230.98 164.00,229.89 C163.95,229.88 163.90,229.87 163.85,229.86 C164.96,229.75 166.00,229.14 167.26,227.97 C169.20,226.17 169.40,225.09 169.13,217.96 C168.87,211.22 169.16,209.39 170.98,206.31 C172.17,204.30 173.39,200.37 173.71,197.58 C174.02,194.79 174.85,191.36 175.55,189.97 C176.36,188.36 176.50,186.86 175.93,185.83 C175.31,184.74 175.50,183.83 176.51,182.99 C177.33,182.31 178.00,182.02 178.00,182.35 C178.00,182.73 179.78,181.76 182.18,180.18 C184.21,178.85 186.70,177.07 188.99,175.26 ZM 54.80 110.95 L 54.81 110.95 C55.12,111.18 55.42,111.41 55.70,111.62 C58.04,113.40 64.05,116.73 70.28,119.85 C64.13,116.97 58.97,114.10 55.72,111.64 C55.43,111.42 55.12,111.19 54.80,110.95 ZM 176.38 156.52 C177.02,157.20 177.61,157.90 178.14,158.62 C175.42,155.27 171.24,152.31 165.45,149.65 C165.62,149.72 165.79,149.80 165.95,149.88 C170.48,151.97 173.90,154.12 176.38,156.52 ZM 161.23 229.36 C155.93,228.40 149.30,227.42 143.99,226.77 C150.77,227.57 159.21,228.79 161.23,229.36 ZM 179.12 178.73 C175.88,183.27 169.62,187.11 159.46,191.19 C152.40,194.02 146.55,196.91 141.66,200.03 L 141.65 200.03 C146.53,196.92 152.37,194.03 159.42,191.20 C169.61,187.11 175.85,183.26 179.12,178.73 ZM 73.12 34.59 C68.12,33.15 63.35,31.66 59.71,30.36 C62.65,31.41 68.01,33.09 73.12,34.59 ZM 52.65 109.40 L 52.66 109.41 C51.25,108.42 49.81,107.44 48.65,106.70 C49.81,107.44 51.25,108.42 52.65,109.40 Z"
              fill="rgb(211,161,211)"/>
        <path d="M 198.25 229.42 C197.19,229.60 196.04,229.77 194.84,229.91 C197.44,229.25 197.34,229.23 194.87,229.12 C191.55,228.97 189.88,225.56 188.33,215.79 C187.98,213.52 188.38,210.13 189.37,207.10 C191.21,201.50 191.38,197.34 190.03,191.50 C189.33,188.50 189.44,186.97 190.49,185.38 C191.25,184.21 191.64,182.35 191.35,181.24 C190.74,178.90 193.45,173.15 195.55,172.34 C196.35,172.04 197.00,171.07 197.00,170.20 C197.00,169.32 198.05,167.46 199.33,166.05 C204.01,160.92 218.19,135.94 218.97,131.60 C218.99,131.49 219.00,131.40 219.00,131.34 C219.00,130.59 220.12,128.09 227.25,113.00 C227.40,112.69 227.54,112.38 227.68,112.08 C231.48,104.04 232.76,101.35 232.11,99.26 C231.75,98.13 230.84,97.17 229.47,95.64 C227.56,93.52 226.00,91.44 226.00,91.03 C226.00,89.33 220.71,91.02 218.47,93.44 C217.14,94.87 214.58,96.31 212.78,96.64 C210.98,96.98 209.05,97.79 208.50,98.46 C207.95,99.12 206.27,99.97 204.78,100.35 C201.96,101.05 196.25,104.52 192.17,108.01 C190.88,109.10 189.02,110.00 188.04,110.00 C187.05,110.00 185.68,110.68 185.00,111.50 C184.32,112.32 182.91,113.00 181.88,113.00 C180.84,113.00 180.00,113.64 180.00,114.42 C180.00,115.20 178.68,116.13 177.07,116.48 C175.46,116.84 173.63,117.75 173.00,118.50 C172.37,119.25 170.43,120.18 168.68,120.55 C166.93,120.93 164.97,121.66 164.32,122.18 C163.67,122.70 161.64,123.17 159.82,123.21 C158.45,123.25 157.18,123.61 155.89,124.38 C155.01,124.88 154.12,125.56 153.22,126.41 C149.73,129.70 141.98,132.28 138.34,131.37 C136.38,130.88 136.27,130.52 137.25,127.72 C138.27,124.79 138.10,124.41 134.16,120.92 C129.24,116.56 128.92,114.09 132.36,107.22 C133.66,104.62 135.26,100.03 135.91,97.00 C136.56,93.97 137.68,90.15 138.41,88.50 C141.83,80.67 144.24,73.65 144.72,70.03 C145.10,67.24 146.01,65.57 147.81,64.39 L 150.37 62.71 L 147.98 60.79 C146.09,59.25 145.82,58.51 146.68,57.18 C147.50,55.92 147.37,54.81 146.14,52.71 C144.85,50.49 144.78,49.75 145.80,49.12 C146.28,48.82 146.14,48.54 144.63,48.13 C157.68,50.93 175.07,55.27 174.51,55.82 C174.27,56.06 171.88,56.21 169.20,56.15 C166.12,56.08 163.62,56.62 162.41,57.60 C160.87,58.87 160.82,59.06 162.18,58.64 C163.10,58.35 164.41,58.79 165.08,59.60 C166.08,60.80 165.93,61.61 164.29,63.82 C163.09,65.45 162.01,68.95 161.63,72.52 C161.27,75.81 160.72,80.63 160.39,83.22 C159.70,88.76 161.29,91.08 165.70,90.97 C167.24,90.94 171.43,91.18 175.00,91.50 C175.31,91.53 175.60,91.56 175.88,91.59 C180.39,92.00 182.04,92.15 183.67,92.02 C184.71,91.94 185.74,91.74 187.50,91.42 C189.70,91.02 191.76,90.30 192.07,89.82 C192.87,88.61 203.13,84.96 204.08,85.55 C204.51,85.81 205.15,85.57 205.49,85.01 C205.84,84.45 207.16,84.25 208.43,84.57 C210.14,85.00 211.27,84.48 212.80,82.53 C213.94,81.08 215.09,79.36 215.37,78.70 C216.06,77.06 227.30,89.31 230.49,95.17 L 233.04 99.84 L 229.92 108.17 C228.21,112.75 225.46,120.10 223.81,124.50 C222.16,128.90 220.13,134.75 219.31,137.50 C217.51,143.45 214.21,150.37 209.38,158.31 C205.98,163.89 205.91,164.21 207.48,166.60 C208.37,167.97 208.83,169.95 208.50,171.00 C208.17,172.04 208.61,174.27 209.47,175.94 C210.94,178.78 210.91,179.26 209.02,182.96 C207.27,186.40 207.08,188.12 207.60,195.84 C208.03,202.29 207.84,205.41 206.89,207.13 C206.14,208.48 205.56,212.81 205.54,217.20 C205.50,224.05 205.72,224.95 207.48,225.42 C211.08,226.36 207.77,227.79 198.25,229.42 ZM 127.73 138.36 C129.69,138.68 130.80,138.58 131.41,138.07 C133.91,136.00 140.87,136.72 143.48,139.33 C145.26,141.11 145.16,141.15 140.41,140.59 C134.11,139.84 135.28,140.32 147.32,143.47 C152.79,144.90 157.56,146.41 161.67,148.04 L 161.67 148.04 C161.70,148.05 161.74,148.07 161.77,148.08 C155.28,145.79 141.42,141.86 127.73,138.36 ZM 184.64 230.71 C176.70,231.04 168.52,230.79 164.00,229.89 C167.45,230.57 177.00,230.86 184.64,230.71 ZM 80.77 36.66 C87.41,38.28 94.86,39.79 103.96,41.37 C95.94,40.08 88.18,38.50 80.77,36.66 ZM 125.05 44.75 C127.75,45.16 130.56,45.57 133.50,46.00 C135.17,46.24 137.47,46.66 140.13,47.20 C136.90,46.62 132.07,45.84 125.05,44.75 ZM 175.17 155.60 C176.30,156.57 177.29,157.58 178.14,158.62 C178.48,159.10 178.81,159.58 179.11,160.07 C178.07,158.50 176.75,157.00 175.17,155.60 ZM 86.65 126.70 C91.37,128.48 96.21,130.13 100.89,131.55 C96.21,130.13 91.38,128.48 86.64,126.70 Z"
              fill="rgb(214,159,195)"/>
        <path d="M 198.25 229.42 C207.77,227.79 211.08,226.36 207.48,225.42 C205.72,224.95 205.50,224.05 205.54,217.20 C205.56,212.81 206.14,208.48 206.89,207.13 C207.84,205.41 208.03,202.29 207.60,195.84 C207.08,188.12 207.27,186.40 209.02,182.96 C210.91,179.26 210.94,178.78 209.47,175.94 C208.61,174.27 208.17,172.04 208.50,171.00 C208.83,169.95 208.37,167.97 207.48,166.60 C205.91,164.21 205.98,163.89 209.38,158.31 C214.21,150.37 217.51,143.45 219.31,137.50 C220.13,134.75 222.16,128.90 223.81,124.50 C225.46,120.10 228.21,112.75 229.92,108.17 L 233.04 99.84 L 230.70 95.56 C232.24,98.08 233.84,100.00 234.45,100.00 C235.14,100.00 237.53,97.41 239.75,94.25 C241.97,91.09 244.80,87.60 246.04,86.50 L 248.29 84.50 L 247.03 87.00 C246.33,88.38 244.29,91.07 242.48,93.00 C239.38,96.30 234.96,105.84 233.43,112.50 C233.05,114.15 231.86,116.46 230.80,117.64 C229.50,119.07 228.96,120.87 229.18,123.06 C229.55,126.86 231.53,128.06 232.48,125.06 C233.17,122.89 235.45,122.30 236.51,124.01 C236.85,124.57 236.44,126.42 235.59,128.12 C234.63,130.05 233.99,134.28 233.90,139.36 C233.83,143.86 233.10,149.16 232.29,151.22 C231.45,153.32 231.01,156.66 231.26,158.90 C231.51,161.07 231.32,165.42 230.83,168.56 C230.23,172.36 230.30,175.37 231.03,177.58 C231.83,180.00 231.81,183.00 230.98,188.70 C230.35,192.99 229.64,198.91 229.40,201.85 C229.08,205.82 228.40,207.68 226.74,209.08 C223.74,211.60 225.90,213.21 230.38,211.81 C235.54,210.19 240.42,209.09 240.79,209.45 C240.97,209.64 238.36,211.53 234.99,213.65 C231.61,215.77 227.42,218.42 225.67,219.55 C223.93,220.68 219.80,222.65 216.50,223.94 C213.20,225.22 209.60,226.66 208.50,227.14 C207.40,227.62 202.68,228.67 198.00,229.49 C196.96,229.67 195.82,229.83 194.61,229.97 C194.69,229.95 194.77,229.93 194.84,229.91 C196.04,229.77 197.19,229.60 198.25,229.42 ZM 217.51 79.70 C216.34,78.73 215.54,78.30 215.37,78.70 C215.09,79.36 213.94,81.08 212.80,82.53 C211.27,84.48 210.14,85.00 208.43,84.57 C207.16,84.25 205.84,84.45 205.49,85.01 C205.15,85.57 204.51,85.81 204.08,85.55 C203.13,84.96 192.87,88.61 192.07,89.82 C191.76,90.30 189.70,91.02 187.50,91.42 C185.74,91.74 184.71,91.94 183.67,92.02 C182.04,92.15 180.39,92.00 175.88,91.59 C175.60,91.56 175.31,91.53 175.00,91.50 C171.43,91.18 167.24,90.94 165.70,90.97 C161.29,91.08 159.70,88.76 160.39,83.22 C160.72,80.63 161.27,75.81 161.63,72.52 C162.01,68.95 163.09,65.45 164.29,63.82 C165.93,61.61 166.08,60.80 165.08,59.60 C164.41,58.79 163.10,58.35 162.18,58.64 C160.82,59.06 160.87,58.87 162.41,57.60 C163.62,56.62 166.12,56.08 169.20,56.15 C171.88,56.21 174.27,56.06 174.51,55.82 C174.84,55.49 168.93,53.85 161.36,51.99 C162.43,52.23 163.28,52.41 163.79,52.52 C175.95,54.96 194.62,62.94 206.31,70.70 C209.95,73.11 213.87,76.30 217.51,79.70 ZM 229.60 93.68 C228.01,91.22 225.54,88.11 223.11,85.36 C225.79,88.30 228.06,91.18 229.60,93.68 ZM 149.72 49.25 C147.98,48.86 146.27,48.48 144.63,48.13 C144.43,48.08 144.21,48.02 143.97,47.97 C145.95,48.38 147.92,48.82 149.72,49.25 ZM 141.24 47.40 C140.89,47.34 140.53,47.27 140.13,47.20 C137.47,46.66 135.17,46.24 133.50,46.00 C135.40,46.28 138.21,46.79 141.24,47.40 Z"
              fill="rgb(220,162,182)"/>
        <path d="M 240.78 209.53 C240.80,209.49 240.80,209.47 240.79,209.45 C240.42,209.09 235.54,210.19 230.38,211.81 C225.90,213.21 223.74,211.60 226.74,209.08 C228.40,207.68 229.08,205.82 229.40,201.85 C229.64,198.91 230.35,192.99 230.98,188.70 C231.81,183.00 231.83,180.00 231.03,177.58 C230.30,175.37 230.23,172.36 230.83,168.56 C231.32,165.42 231.51,161.07 231.26,158.90 C231.01,156.66 231.45,153.32 232.29,151.22 C233.10,149.16 233.83,143.86 233.90,139.36 C233.99,134.28 234.63,130.05 235.59,128.12 C236.44,126.42 236.85,124.57 236.51,124.01 C235.45,122.30 233.17,122.89 232.48,125.06 C231.53,128.06 229.55,126.86 229.18,123.06 C228.96,120.87 229.50,119.07 230.80,117.64 C231.86,116.46 233.05,114.15 233.43,112.50 C234.96,105.84 239.38,96.30 242.48,93.00 C244.29,91.07 246.33,88.38 247.03,87.00 L 248.29 84.50 L 247.50 85.20 C252.14,80.33 257.54,75.30 261.50,72.35 C266.57,68.56 273.00,64.67 273.00,65.38 C273.00,65.69 269.85,69.05 266.00,72.86 C259.71,79.09 258.79,80.40 259.09,82.64 C259.13,82.99 258.57,83.66 257.84,84.12 C257.00,84.65 256.93,84.98 257.64,84.98 C258.45,85.00 258.74,88.58 258.64,97.00 C258.56,103.60 258.76,109.00 259.08,109.00 L 259.10 109.00 C259.18,109.00 259.25,109.00 259.31,109.02 C259.85,109.20 259.87,111.00 260.07,128.86 C260.21,141.21 259.93,146.42 259.10,146.94 C258.46,147.33 258.22,148.41 258.57,149.33 C258.95,150.30 258.73,151.00 258.05,151.00 C257.41,151.00 257.16,151.45 257.50,152.00 C257.84,152.55 258.99,153.00 260.06,153.00 C262.36,153.00 262.84,157.46 260.63,158.31 C259.84,158.62 258.99,161.07 258.63,164.17 C257.22,175.95 256.76,178.54 255.90,179.45 C254.67,180.75 254.77,183.74 256.05,184.53 C256.63,184.89 258.65,184.13 260.53,182.84 C263.64,180.72 264.63,179.18 266.38,173.73 C266.69,172.76 268.20,171.50 269.72,170.92 C271.25,170.34 273.37,169.10 274.45,168.18 C275.52,167.26 274.56,168.75 272.32,171.50 C270.07,174.25 267.66,177.62 266.96,179.00 C266.25,180.38 262.80,185.42 259.28,190.22 C253.81,197.68 247.39,204.36 240.78,209.53 ZM 282.75 62.01 C279.06,63.79 274.92,64.74 276.13,63.53 C276.39,63.28 279.20,61.92 282.37,60.51 C288.84,57.65 289.16,58.91 282.75,62.01 Z"
              fill="rgb(230,163,161)"/>
        <path d="M 282.75 62.01 C287.06,59.92 288.33,58.67 286.73,58.95 C293.58,56.32 301.37,53.91 310.50,51.54 C319.80,49.14 321.18,48.90 320.59,49.85 C320.28,50.36 318.33,51.08 316.26,51.46 C314.19,51.84 311.01,53.01 309.19,54.07 C307.37,55.13 304.54,56.00 302.90,56.00 C297.21,56.00 287.96,62.49 291.82,63.77 C294.51,64.67 291.26,76.00 288.31,76.00 C286.76,76.00 286.63,77.35 287.95,79.76 C288.47,80.72 289.60,83.77 290.46,86.56 C291.72,90.60 291.80,92.27 290.89,94.90 C290.23,96.78 289.98,100.56 290.31,103.72 C290.70,107.51 290.46,109.92 289.53,111.38 C288.79,112.54 287.93,117.30 287.61,121.93 C287.29,126.57 286.57,130.83 286.02,131.38 C285.46,131.94 285.00,133.86 285.00,135.65 C285.00,139.67 283.23,143.99 280.73,146.06 C279.53,147.06 278.65,149.42 278.33,152.55 C278.04,155.26 277.38,158.28 276.86,159.26 C275.52,161.77 276.67,163.25 278.99,162.00 C282.75,159.99 282.11,161.14 275.66,167.98 C273.47,170.29 271.26,172.89 269.64,174.97 C270.47,173.83 271.41,172.61 272.32,171.50 C274.56,168.75 275.52,167.26 274.45,168.18 C273.37,169.10 271.25,170.34 269.72,170.92 C268.20,171.50 266.69,172.76 266.38,173.73 C264.63,179.18 263.64,180.72 260.53,182.84 C258.65,184.13 256.63,184.89 256.05,184.53 C254.77,183.74 254.67,180.75 255.90,179.45 C256.76,178.54 257.22,175.95 258.63,164.17 C258.99,161.07 259.84,158.62 260.63,158.31 C262.84,157.46 262.36,153.00 260.06,153.00 C258.99,153.00 257.84,152.55 257.50,152.00 C257.16,151.45 257.41,151.00 258.05,151.00 C258.73,151.00 258.95,150.30 258.57,149.33 C258.22,148.41 258.46,147.33 259.10,146.94 C259.93,146.42 260.21,141.21 260.07,128.86 C259.87,111.00 259.85,109.20 259.31,109.02 C259.25,109.00 259.18,109.00 259.10,109.00 L 259.08 109.00 C258.76,109.00 258.56,103.60 258.64,97.00 C258.74,88.58 258.45,85.00 257.64,84.98 C256.93,84.98 257.00,84.65 257.84,84.12 C258.57,83.66 259.13,82.99 259.09,82.64 C258.79,80.40 259.71,79.09 266.00,72.86 C269.85,69.05 273.00,65.69 273.00,65.38 C273.00,65.27 272.84,65.27 272.55,65.37 C273.71,64.74 274.91,64.13 276.14,63.53 L 276.13 63.53 C274.92,64.74 279.06,63.79 282.75,62.01 ZM 259.93 189.33 C263.21,184.82 266.29,180.29 266.96,179.00 C267.04,178.84 267.15,178.65 267.28,178.43 C265.83,181.16 263.08,185.17 259.93,189.33 ZM 243.84 207.02 C246.28,204.92 248.68,202.62 251.00,200.17 C249.42,201.91 247.94,203.42 246.70,204.55 C245.85,205.32 244.87,206.16 243.84,207.02 ZM 240.11 93.74 C239.99,93.91 239.87,94.08 239.75,94.25 C237.53,97.41 235.15,99.99 234.45,100.00 C235.15,99.99 237.54,97.39 239.77,94.22 C239.88,94.06 239.99,93.90 240.11,93.74 ZM 248.87 83.78 C248.41,84.25 247.95,84.73 247.50,85.20 L 247.38 85.31 C247.87,84.80 248.37,84.29 248.87,83.78 Z"
              fill="rgb(238,161,138)"/>
        <path d="M 312.92 52.41 C314.11,51.98 315.30,51.63 316.26,51.46 C318.17,51.11 319.97,50.47 320.49,49.97 C320.52,49.95 320.55,49.93 320.57,49.91 C321.52,49.15 326.50,48.27 348.50,44.94 C350.44,44.65 352.81,44.28 355.42,43.85 C349.59,44.85 345.22,45.77 345.00,46.07 C344.73,46.45 342.59,47.07 340.26,47.46 C337.92,47.85 335.76,48.58 335.45,49.09 C335.14,49.59 333.81,50.00 332.51,50.00 C331.20,50.00 327.39,51.19 324.04,52.64 C318.36,55.10 318.09,55.37 319.92,56.66 C321.47,57.74 321.87,59.14 321.80,63.27 C321.75,66.15 321.41,68.95 321.03,69.50 C320.66,70.05 319.79,72.47 319.10,74.88 C317.76,79.54 318.47,95.54 320.10,97.58 C320.65,98.26 317.71,102.03 312.03,107.91 C307.12,113.01 300.44,121.07 297.18,125.84 C290.47,135.66 281.51,153.40 282.48,154.96 C282.74,155.39 282.89,155.68 283.12,155.81 C283.54,156.06 284.25,155.82 286.49,155.05 C286.68,154.98 286.88,154.91 287.10,154.84 C288.97,154.20 292.94,151.95 295.91,149.84 C299.89,147.02 302.33,146.00 305.10,146.00 C307.18,146.00 309.14,145.59 309.45,145.09 C309.76,144.58 311.91,143.85 314.23,143.46 C316.56,143.07 319.37,142.16 320.48,141.45 C321.59,140.74 324.75,139.86 327.50,139.49 C330.25,139.12 334.75,138.02 337.50,137.04 C340.25,136.07 344.28,134.95 346.45,134.55 C348.63,134.16 352.10,132.97 354.16,131.92 C356.28,130.84 360.01,129.99 362.71,129.98 C365.55,129.96 369.95,128.92 373.50,127.41 C376.80,126.02 381.69,124.20 384.37,123.37 C387.04,122.53 392.48,120.31 396.45,118.43 C400.42,116.54 404.15,115.00 404.74,115.00 C405.33,115.00 407.70,113.43 410.00,111.50 C412.30,109.57 414.87,108.00 415.71,108.00 C416.55,108.00 418.77,106.65 420.65,105.00 C422.53,103.35 424.58,102.00 425.20,102.00 C425.63,102.00 427.06,100.88 428.79,99.24 C428.71,99.31 428.64,99.39 428.56,99.47 C420.38,107.81 411.69,113.73 398.00,120.29 C385.15,126.45 374.79,129.81 346.52,137.02 C314.17,145.27 302.12,149.28 292.22,155.12 C287.35,157.99 283.69,159.97 281.12,161.11 C280.83,161.10 280.21,161.37 279.28,161.85 C277.89,162.34 277.01,162.42 276.62,162.12 C276.51,162.00 276.42,161.86 276.37,161.69 C276.22,161.09 276.42,160.09 276.86,159.26 C277.38,158.28 278.04,155.26 278.33,152.55 C278.65,149.42 279.53,147.06 280.73,146.06 C283.23,143.99 285.00,139.67 285.00,135.65 C285.00,133.86 285.46,131.94 286.02,131.38 C286.57,130.83 287.29,126.57 287.61,121.93 C287.93,117.30 288.79,112.54 289.53,111.38 C290.46,109.92 290.70,107.51 290.31,103.72 C289.98,100.56 290.23,96.78 290.89,94.90 C291.80,92.27 291.72,90.60 290.46,86.56 C289.60,83.77 288.47,80.72 287.95,79.76 C286.63,77.35 286.76,76.00 288.31,76.00 C291.26,76.00 294.51,64.67 291.82,63.77 C287.96,62.49 297.21,56.00 302.90,56.00 L 302.91 56.00 C304.55,56.00 307.38,55.14 309.19,54.10 C310.19,53.52 311.56,52.91 312.92,52.41 ZM 386.43 38.23 C397.14,35.50 419.37,27.88 429.17,23.55 C424.11,26.00 419.70,27.92 417.78,28.37 C416.29,28.73 412.92,30.47 410.29,32.25 C406.72,34.66 404.37,35.48 401.01,35.52 C398.53,35.55 394.70,36.08 392.50,36.70 C390.72,37.20 388.70,37.71 386.43,38.23 ZM 449.03 72.94 C457.12,58.81 462.04,43.34 463.99,26.11 C462.02,43.52 457.18,58.83 449.03,72.94 ZM 359.51 43.18 C367.17,41.90 375.76,40.39 381.00,39.40 C375.26,40.56 368.31,41.79 360.00,43.10 C359.84,43.12 359.67,43.15 359.51,43.18 ZM 444.20 15.63 C445.31,14.98 446.34,14.37 447.24,13.81 C450.89,11.54 453.28,10.18 455.10,9.57 C453.28,10.18 450.89,11.54 447.24,13.81 C446.31,14.39 445.29,15.00 444.20,15.63 Z"
              fill="rgb(243,157,112)"/>
        <path d="M 359.51 43.18 C359.67,43.15 359.84,43.12 360.00,43.10 C368.31,41.79 375.26,40.56 381.00,39.40 C381.95,39.22 382.80,39.05 383.50,38.91 C384.33,38.74 385.32,38.51 386.43,38.23 C388.70,37.71 390.72,37.20 392.50,36.70 C394.70,36.08 398.53,35.55 401.01,35.52 C404.37,35.48 406.72,34.66 410.29,32.25 C412.92,30.47 416.29,28.73 417.78,28.37 C419.70,27.92 424.11,26.00 429.17,23.55 C429.84,23.25 430.45,22.97 431.00,22.71 C434.69,20.93 440.02,18.06 444.20,15.63 C445.29,15.00 446.31,14.39 447.24,13.81 C450.89,11.54 453.28,10.18 455.10,9.57 C455.38,9.47 455.64,9.40 455.89,9.34 C457.81,8.88 459.11,9.39 460.84,10.60 C464.49,13.15 465.11,16.22 463.99,26.11 C462.04,43.34 457.12,58.81 449.03,72.94 L 449.03 72.94 C443.73,82.13 437.02,90.81 428.79,99.24 C427.06,100.88 425.63,102.00 425.20,102.00 C424.58,102.00 422.53,103.35 420.65,105.00 C418.77,106.65 416.55,108.00 415.71,108.00 C414.87,108.00 412.30,109.57 410.00,111.50 C407.70,113.43 405.33,115.00 404.74,115.00 C404.15,115.00 400.42,116.54 396.45,118.43 C393.68,119.74 390.20,121.22 387.43,122.28 C390.59,120.99 394.52,118.85 396.96,117.03 C399.93,114.81 402.87,113.00 403.49,113.00 C404.12,113.00 405.95,111.61 407.56,109.91 C409.18,108.21 412.08,106.07 414.00,105.15 C416.15,104.13 417.62,102.65 417.81,101.32 C417.98,100.13 419.33,98.36 420.81,97.39 C422.29,96.42 424.09,95.04 424.82,94.32 C425.55,93.59 426.76,93.00 427.50,93.00 C428.73,93.00 430.63,89.43 430.24,87.87 C430.15,87.52 430.62,87.25 431.29,87.28 C436.15,87.44 437.74,84.99 434.38,82.54 C433.11,81.61 433.00,80.94 433.86,79.43 C434.46,78.37 435.43,75.59 436.02,73.25 C436.82,70.03 437.56,69.00 439.07,69.00 C442.02,69.00 442.60,71.79 440.13,74.09 C438.10,75.98 437.28,79.95 438.63,81.30 C438.98,81.65 440.10,81.48 441.13,80.93 C442.45,80.22 443.00,78.82 443.00,76.15 C443.00,73.25 443.70,71.70 446.05,69.45 C448.17,67.42 449.02,65.74 448.83,63.95 C448.67,62.46 449.50,60.18 450.78,58.55 C454.01,54.45 455.50,48.73 454.37,44.78 C452.57,38.52 449.05,40.76 449.01,48.18 C449.00,49.98 448.34,51.07 447.00,51.50 C445.90,51.85 445.00,52.55 445.00,53.07 C445.00,53.58 444.50,54.00 443.89,54.00 C443.28,54.00 443.05,53.33 443.36,52.50 C443.68,51.67 443.57,51.00 443.11,51.00 C441.34,51.00 428.46,58.27 425.28,61.06 C423.44,62.68 421.34,64.00 420.61,64.00 C419.89,64.00 417.32,65.05 414.90,66.34 C409.19,69.37 392.76,74.71 387.00,75.40 C384.52,75.69 380.81,76.24 378.75,76.60 C375.23,77.22 375.00,77.10 375.00,74.75 C375.00,73.17 374.07,71.62 372.50,70.59 C370.20,69.09 368.73,64.10 371.00,65.50 C371.55,65.84 372.00,65.42 372.00,64.56 C372.00,63.70 372.56,62.99 373.25,62.98 C374.07,62.97 374.14,62.72 373.45,62.23 C372.10,61.29 369.88,51.49 370.59,49.62 C370.89,48.84 372.05,47.96 373.17,47.67 C374.29,47.37 374.90,46.65 374.54,46.07 C373.69,44.70 365.47,44.68 362.91,46.05 C361.55,46.78 359.24,46.78 355.29,46.05 C352.17,45.47 349.37,45.36 349.06,45.81 C348.04,47.28 342.58,48.84 336.21,49.48 C335.64,49.53 335.04,49.61 334.42,49.71 C334.92,49.55 335.30,49.33 335.45,49.09 C335.76,48.58 337.92,47.85 340.26,47.46 C342.59,47.07 344.73,46.45 345.00,46.07 C345.22,45.77 349.59,44.85 355.42,43.85 C356.73,43.64 358.10,43.41 359.51,43.18 ZM 320.57 54.21 L 322.75 55.99 C325.28,58.05 325.63,60.23 323.69,61.84 C321.60,63.58 321.58,78.88 323.67,81.19 C324.57,82.18 324.84,83.00 324.26,83.00 C323.03,83.00 321.77,87.09 321.50,91.95 C321.39,93.85 320.77,95.58 320.11,95.80 C319.82,95.89 319.62,96.02 319.52,96.18 C318.32,91.66 317.93,78.95 319.10,74.88 C319.79,72.47 320.66,70.05 321.03,69.50 C321.41,68.95 321.75,66.15 321.80,63.27 C321.87,59.14 321.47,57.74 319.92,56.66 C318.58,55.72 318.37,55.32 320.57,54.21 ZM 332.80 49.99 C330.79,50.38 328.69,50.91 326.99,51.47 C329.39,50.60 331.58,50.00 332.51,50.00 C332.60,50.00 332.70,50.00 332.80,49.99 ZM 319.88 98.62 C319.21,100.14 316.80,102.97 312.03,107.91 C316.32,103.47 319.04,100.24 319.88,98.62 ZM 385.59 122.96 C385.14,123.11 384.73,123.25 384.37,123.37 C384.23,123.41 384.08,123.45 383.93,123.50 C384.50,123.31 385.04,123.13 385.53,122.97 Z"
              fill="rgb(249,169,97)"/>
        <path d="M 356.00 129.86 C356.00,130.33 357.44,130.43 359.55,130.28 C357.55,130.62 355.53,131.22 354.16,131.92 C352.10,132.97 348.63,134.16 346.45,134.55 C344.28,134.95 340.25,136.07 337.50,137.04 C334.75,138.02 330.25,139.12 327.50,139.49 C324.75,139.86 321.59,140.74 320.48,141.45 C319.37,142.16 316.56,143.07 314.23,143.46 C311.91,143.85 309.76,144.58 309.45,145.09 C309.14,145.59 307.18,146.00 305.10,146.00 C302.33,146.00 299.89,147.02 295.91,149.84 C292.94,151.95 288.97,154.20 287.10,154.84 C286.88,154.91 286.68,154.98 286.49,155.05 C284.25,155.82 283.54,156.06 283.12,155.81 C282.89,155.68 282.74,155.39 282.48,154.96 C281.51,153.40 290.47,135.66 297.18,125.84 C300.44,121.07 307.12,113.01 312.03,107.91 C316.32,103.47 319.04,100.24 319.88,98.62 C320.16,98.10 320.23,97.75 320.10,97.58 C320.09,97.57 320.09,97.57 320.08,97.56 C320.78,98.08 320.55,98.85 319.32,100.26 C317.98,101.77 319.23,101.36 324.00,98.74 C335.37,92.49 350.60,87.19 363.63,84.95 C372.14,83.49 375.67,84.17 377.23,87.60 C378.28,89.91 378.09,90.38 375.19,92.65 C373.20,94.20 372.00,96.04 372.00,97.51 C372.00,98.82 371.61,100.12 371.13,100.42 C370.65,100.71 369.95,103.33 369.56,106.22 C368.88,111.36 364.48,120.53 361.50,123.00 C360.69,123.67 360.27,124.63 360.57,125.11 C360.87,125.60 360.67,126.00 360.13,126.00 C358.99,126.00 356.00,128.80 356.00,129.86 ZM 372.36 127.87 C369.04,129.13 365.25,129.96 362.71,129.98 C362.60,129.98 362.49,129.98 362.37,129.98 C365.65,129.54 369.54,128.76 372.36,127.87 ZM 385.59 122.96 L 385.53 122.97 C385.04,123.13 384.50,123.31 383.93,123.50 C382.65,123.91 380.97,124.51 379.23,125.16 C381.40,124.33 383.71,123.51 385.53,122.94 C388.85,121.91 393.98,119.25 396.95,117.04 C394.50,118.86 390.59,120.99 387.43,122.28 C386.77,122.53 386.15,122.76 385.59,122.96 ZM 319.56 96.32 C319.55,96.28 319.54,96.23 319.52,96.18 C319.62,96.02 319.82,95.89 320.11,95.80 C320.24,95.75 320.37,95.65 320.49,95.50 C320.35,95.71 320.20,95.87 320.05,95.97 C319.85,96.10 319.68,96.21 319.56,96.32 Z"
              fill="rgb(249,138,89)"/>
        <path d="M 320.57 54.21 C321.38,53.81 322.52,53.30 324.04,52.64 C325.01,52.22 326.02,51.82 326.99,51.47 C328.69,50.91 330.79,50.38 332.80,49.99 C333.38,49.97 333.95,49.86 334.42,49.71 C335.04,49.61 335.64,49.53 336.21,49.48 C342.58,48.84 348.04,47.28 349.06,45.81 C349.37,45.36 352.17,45.47 355.29,46.05 C359.24,46.78 361.55,46.78 362.91,46.05 C365.47,44.68 373.69,44.70 374.54,46.07 C374.90,46.65 374.29,47.37 373.17,47.67 C372.05,47.96 370.89,48.84 370.59,49.62 C369.88,51.49 372.10,61.29 373.45,62.23 C374.14,62.72 374.07,62.97 373.25,62.98 C372.56,62.99 372.00,63.70 372.00,64.56 C372.00,65.42 371.55,65.84 371.00,65.50 C368.73,64.10 370.20,69.09 372.50,70.59 C374.07,71.62 375.00,73.17 375.00,74.75 C375.00,77.10 375.23,77.22 378.75,76.60 C380.81,76.24 384.52,75.69 387.00,75.40 C392.76,74.71 409.19,69.37 414.90,66.34 C417.32,65.05 419.89,64.00 420.61,64.00 C421.34,64.00 423.44,62.68 425.28,61.06 C428.46,58.27 441.34,51.00 443.11,51.00 C443.57,51.00 443.68,51.67 443.36,52.50 C443.05,53.33 443.28,54.00 443.89,54.00 C444.50,54.00 445.00,53.58 445.00,53.07 C445.00,52.55 445.90,51.85 447.00,51.50 C448.34,51.07 449.00,49.98 449.01,48.18 C449.05,40.76 452.57,38.52 454.37,44.78 C455.50,48.73 454.01,54.45 450.78,58.55 C449.50,60.18 448.67,62.46 448.83,63.95 C449.02,65.74 448.17,67.42 446.05,69.45 C443.70,71.70 443.00,73.25 443.00,76.15 C443.00,78.82 442.45,80.22 441.13,80.93 C440.10,81.48 438.98,81.65 438.63,81.30 C437.28,79.95 438.10,75.98 440.13,74.09 C442.60,71.79 442.02,69.00 439.07,69.00 C437.56,69.00 436.82,70.03 436.02,73.25 C435.43,75.59 434.46,78.37 433.86,79.43 C433.00,80.94 433.11,81.61 434.38,82.54 C437.74,84.99 436.15,87.44 431.29,87.28 C430.62,87.25 430.15,87.52 430.24,87.87 C430.63,89.43 428.73,93.00 427.50,93.00 C426.76,93.00 425.55,93.59 424.82,94.32 C424.09,95.04 422.29,96.42 420.81,97.39 C419.33,98.36 417.98,100.13 417.81,101.32 C417.62,102.65 416.15,104.13 414.00,105.15 C412.08,106.07 409.18,108.21 407.56,109.91 C405.95,111.61 404.12,113.00 403.49,113.00 C402.87,113.00 399.93,114.81 396.96,117.03 L 396.96 117.03 L 396.95 117.04 C393.98,119.25 388.85,121.91 385.53,122.94 C383.71,123.51 381.40,124.33 379.23,125.16 C377.24,125.90 375.17,126.71 373.50,127.41 C373.13,127.57 372.75,127.72 372.36,127.87 C369.54,128.76 365.65,129.54 362.37,129.98 C361.49,130.01 360.52,130.11 359.55,130.28 C357.44,130.43 356.00,130.33 356.00,129.86 C356.00,128.80 358.99,126.00 360.13,126.00 C360.67,126.00 360.87,125.60 360.57,125.11 C360.27,124.63 360.69,123.67 361.50,123.00 C364.48,120.53 368.88,111.36 369.56,106.22 C369.95,103.33 370.65,100.71 371.13,100.42 C371.61,100.12 372.00,98.82 372.00,97.51 C372.00,96.04 373.20,94.20 375.19,92.65 C378.09,90.38 378.28,89.91 377.23,87.60 C375.67,84.17 372.14,83.49 363.63,84.95 C350.60,87.19 335.37,92.49 324.00,98.74 C319.23,101.36 317.98,101.77 319.32,100.26 C320.55,98.85 320.78,98.08 320.08,97.56 C319.90,97.32 319.72,96.89 319.56,96.32 C319.68,96.21 319.85,96.10 320.05,95.97 C320.20,95.87 320.35,95.71 320.49,95.50 C321.00,94.89 321.41,93.47 321.50,91.95 C321.77,87.09 323.03,83.00 324.26,83.00 C324.84,83.00 324.57,82.18 323.67,81.19 C321.58,78.88 321.60,63.58 323.69,61.84 C325.63,60.23 325.28,58.05 322.75,55.99 Z"
              fill="rgb(251,159,87)"/>
    </g>
</svg>


